<svg xmlns="http://www.w3.org/2000/svg" viewBox="0 0 754 400" preserveAspectRatio="xMidYMid meet" style="width:100%;height:auto;display:block;">
  <defs>
    <clipPath id="plot">
      <rect x="0" y="0" width="734" height="304" />
    </clipPath>
  </defs>
  <rect fill="#F9FAFB" x="0" y="0" width="754" height="400" />
  <g>
    <line x1="10" y1="10" x2="10" y2="314" stroke="#e6e6e6" stroke-width="0" />
    <line x1="40.58333333333333" y1="10" x2="40.58333333333333" y2="314" stroke="#e6e6e6" stroke-width="0" />
    <line x1="71.16666666666666" y1="10" x2="71.16666666666666" y2="314" stroke="#e6e6e6" stroke-width="0" />
    <line x1="101.75" y1="10" x2="101.75" y2="314" stroke="#e6e6e6" stroke-width="0" />
    <line x1="132.33333333333331" y1="10" x2="132.33333333333331" y2="314" stroke="#e6e6e6" stroke-width="0" />
    <line x1="162.91666666666666" y1="10" x2="162.91666666666666" y2="314" stroke="#e6e6e6" stroke-width="0" />
    <line x1="193.5" y1="10" x2="193.5" y2="314" stroke="#e6e6e6" stroke-width="0" />
    <line x1="224.08333333333331" y1="10" x2="224.08333333333331" y2="314" stroke="#e6e6e6" stroke-width="0" />
    <line x1="254.66666666666666" y1="10" x2="254.66666666666666" y2="314" stroke="#e6e6e6" stroke-width="0" />
    <line x1="285.25" y1="10" x2="285.25" y2="314" stroke="#e6e6e6" stroke-width="0" />
    <line x1="315.8333333333333" y1="10" x2="315.8333333333333" y2="314" stroke="#e6e6e6" stroke-width="0" />
    <line x1="346.41666666666663" y1="10" x2="346.41666666666663" y2="314" stroke="#e6e6e6" stroke-width="0" />
    <line x1="377" y1="10" x2="377" y2="314" stroke="#e6e6e6" stroke-width="0" />
    <line x1="407.5833333333333" y1="10" x2="407.5833333333333" y2="314" stroke="#e6e6e6" stroke-width="0" />
    <line x1="438.16666666666663" y1="10" x2="438.16666666666663" y2="314" stroke="#e6e6e6" stroke-width="0" />
    <line x1="468.75" y1="10" x2="468.75" y2="314" stroke="#e6e6e6" stroke-width="0" />
    <line x1="499.3333333333333" y1="10" x2="499.3333333333333" y2="314" stroke="#e6e6e6" stroke-width="0" />
    <line x1="529.9166666666666" y1="10" x2="529.9166666666666" y2="314" stroke="#e6e6e6" stroke-width="0" />
    <line x1="560.5" y1="10" x2="560.5" y2="314" stroke="#e6e6e6" stroke-width="0" />
    <line x1="591.0833333333333" y1="10" x2="591.0833333333333" y2="314" stroke="#e6e6e6" stroke-width="0" />
    <line x1="621.6666666666666" y1="10" x2="621.6666666666666" y2="314" stroke="#e6e6e6" stroke-width="0" />
    <line x1="652.25" y1="10" x2="652.25" y2="314" stroke="#e6e6e6" stroke-width="0" />
    <line x1="682.8333333333333" y1="10" x2="682.8333333333333" y2="314" stroke="#e6e6e6" stroke-width="0" />
    <line x1="713.4166666666666" y1="10" x2="713.4166666666666" y2="314" stroke="#e6e6e6" stroke-width="0" />
    <line x1="744" y1="10" x2="744" y2="314" stroke="#e6e6e6" stroke-width="0" />
  </g>
  <line x1="10" y1="314.5" x2="744" y2="314.5" stroke="#ffffff" stroke-width="1" />
  <g clip-path="url(#plot)" transform="translate(10,10)">
    <g>
      <path d="M 217.14166666666665 248.79241397995122 h 24.46666666666667 v 55.20758602004877 h -24.46666666666667 Z" fill="#82CF76" />
      <path d="M 247.725 193.51893795719317 h 24.46666666666667 v 110.48106204280683 h -24.46666666666667 Z" fill="#82CF76" />
      <path d="M 278.30833333333334 152.42581414250878 h 24.46666666666667 v 151.57418585749122 h -24.46666666666667 Z" fill="#82CF76" />
      <path d="M 308.89166666666665 231.6400108371715 h 24.46666666666667 v 72.3599891628285 h -24.46666666666667 Z" fill="#82CF76" />
      <path d="M 339.47499999999997 226.22879436467082 h 24.46666666666667 v 77.77120563532918 h -24.46666666666667 Z" fill="#82CF76" />
      <path d="M 370.05833333333334 228.12272013004605 h 24.46666666666667 v 75.87727986995394 h -24.46666666666667 Z" fill="#82CF76" />
      <path d="M 400.64166666666665 218.59296667569765 h 24.46666666666667 v 85.40703332430236 h -24.46666666666667 Z" fill="#82CF76" />
      <path d="M 431.22499999999997 190.90557572473585 h 24.46666666666667 v 113.09442427526416 h -24.46666666666667 Z" fill="#82CF76" />
      <path d="M 461.80833333333334 236.6904795448388 h 24.46666666666667 v 67.3095204551612 h -24.46666666666667 Z" fill="#82CF76" />
      <path d="M 492.39166666666665 193.97193172581956 h 24.46666666666667 v 110.02806827418044 h -24.46666666666667 Z" fill="#82CF76" />
      <path d="M 522.9749999999999 150.8633974532647 h 24.46666666666667 v 153.1366025467353 h -24.46666666666667 Z" fill="#82CF76" />
      <path d="M 553.5583333333333 227.18872934164182 h 24.46666666666667 v 76.81127065835817 h -24.46666666666667 Z" fill="#82CF76" />
    </g>
    <g>
      <path d="M 3.0583333333333336 265.7987428881062 a 1 1 0 0 1 1 -1 h 22.46666666666667 a 1 1 0 0 1 1 1 v 38.201257111893796 h -24.46666666666667 Z" fill="#DFDFDF" />
      <path d="M 33.641666666666666 250.2565266865348 a 1 1 0 0 1 1 -1 h 22.46666666666667 a 1 1 0 0 1 1 1 v 53.74347331346519 h -24.46666666666667 Z" fill="#DFDFDF" />
      <path d="M 64.225 253.35294500135464 a 1 1 0 0 1 1 -1 h 22.46666666666667 a 1 1 0 0 1 1 1 v 50.64705499864536 h -24.46666666666667 Z" fill="#DFDFDF" />
      <path d="M 94.80833333333334 255.84811704145218 a 1 1 0 0 1 1 -1 h 22.46666666666667 a 1 1 0 0 1 1 1 v 48.15188295854782 h -24.46666666666667 Z" fill="#DFDFDF" />
      <path d="M 125.39166666666667 272.6830127336765 a 1 1 0 0 1 1 -1 h 22.46666666666667 a 1 1 0 0 1 1 1 v 31.316987266323494 h -24.46666666666667 Z" fill="#DFDFDF" />
      <path d="M 155.975 258.04266594418857 a 1 1 0 0 1 1 -1 h 22.46666666666667 a 1 1 0 0 1 1 1 v 45.95733405581143 h -24.46666666666667 Z" fill="#DFDFDF" />
      <path d="M 186.55833333333334 168.09622324573286 a 1 1 0 0 1 1 -1 h 22.46666666666667 a 1 1 0 0 1 1 1 v 135.90377675426714 h -24.46666666666667 Z" fill="#DFDFDF" />
      <path d="M 217.14166666666665 178.6480953671092 a 1 1 0 0 1 1 -1 h 22.46666666666667 a 1 1 0 0 1 1 1 v 70.14431861284206 h -24.46666666666667 Z" fill="#DFDFDF" />
      <path d="M 247.725 188.3882850176104 a 1 1 0 0 1 1 -1 h 22.46666666666667 a 1 1 0 0 1 1 1 v 5.130652939582776 h -24.46666666666667 Z" fill="#DFDFDF" />
      <path d="M 522.9749999999999 134.8773665673259 a 1 1 0 0 1 1 -1 h 22.46666666666667 a 1 1 0 0 1 1 1 v 15.98603088593877 h -24.46666666666667 Z" fill="#DFDFDF" />
      <path d="M 553.5583333333333 180.51195881874833 a 1 1 0 0 1 1 -1 h 22.46666666666667 a 1 1 0 0 1 1 1 v 46.676770522893506 h -24.46666666666667 Z" fill="#DFDFDF" />
      <path d="M 584.1416666666665 151.08095367109183 a 1 1 0 0 1 1 -1 h 22.46666666666667 a 1 1 0 0 1 1 1 v 152.91904632890817 h -24.46666666666667 Z" fill="#DFDFDF" />
      <path d="M 614.7249999999999 162.4745705770794 a 1 1 0 0 1 1 -1 h 22.46666666666667 a 1 1 0 0 1 1 1 v 141.5254294229206 h -24.46666666666667 Z" fill="#DFDFDF" />
      <path d="M 645.3083333333333 175.91242481712274 a 1 1 0 0 1 1 -1 h 22.46666666666667 a 1 1 0 0 1 1 1 v 128.08757518287726 h -24.46666666666667 Z" fill="#DFDFDF" />
      <path d="M 675.8916666666665 164.69918179355187 a 1 1 0 0 1 1 -1 h 22.46666666666667 a 1 1 0 0 1 1 1 v 139.30081820644813 h -24.46666666666667 Z" fill="#DFDFDF" />
      <path d="M 706.4749999999999 220.85558385261447 a 1 1 0 0 1 1 -1 h 22.46666666666667 a 1 1 0 0 1 1 1 v 83.14441614738553 h -24.46666666666667 Z" fill="#DFDFDF" />
    </g>
    <g>
      <path d="M 278.30833333333334 137.9853156326199 a 1 1 0 0 1 1 -1 h 22.46666666666667 a 1 1 0 0 1 1 1 v 14.440498509888915 h -24.46666666666667 Z" fill="#59ACE8" />
      <path d="M 308.89166666666665 82.6294771064752 a 1 1 0 0 1 1 -1 h 22.46666666666667 a 1 1 0 0 1 1 1 v 149.0105337306963 h -24.46666666666667 Z" fill="#59ACE8" />
      <path d="M 339.47499999999997 28.937361148740194 a 1 1 0 0 1 1 -1 h 22.46666666666667 a 1 1 0 0 1 1 1 v 197.29143321593062 h -24.46666666666667 Z" fill="#59ACE8" />
      <path d="M 370.05833333333334 30.99642373340555 a 1 1 0 0 1 1 -1 h 22.46666666666667 a 1 1 0 0 1 1 1 v 197.1262963966405 h -24.46666666666667 Z" fill="#59ACE8" />
      <path d="M 400.64166666666665 13.807369276618772 a 1 1 0 0 1 1 -1 h 22.46666666666667 a 1 1 0 0 1 1 1 v 204.78559739907888 h -24.46666666666667 Z" fill="#59ACE8" />
      <path d="M 431.22499999999997 1.650663776754243 a 1 1 0 0 1 1 -1 h 22.46666666666667 a 1 1 0 0 1 1 1 v 189.2549119479816 h -24.46666666666667 Z" fill="#59ACE8" />
      <path d="M 461.80833333333334 1 a 1 1 0 0 1 1 -1 h 22.46666666666667 a 1 1 0 0 1 1 1 v 235.6904795448388 h -24.46666666666667 Z" fill="#59ACE8" />
      <path d="M 492.39166666666665 75.31568680574372 a 1 1 0 0 1 1 -1 h 22.46666666666667 a 1 1 0 0 1 1 1 v 118.65624492007584 h -24.46666666666667 Z" fill="#59ACE8" />
    </g>
  </g>
  <g clip-path="url(#plot)" transform="translate(10,10)">
    <path fill="none" stroke="#FF0000" stroke-width="2" stroke-linejoin="round" stroke-linecap="round" d="M 15.291666666666666,264.7987428881062 45.875,249.2565266865348 76.45833333333333,252.35294500135464 107.04166666666666,254.84811704145218 137.625,271.6830127336765 168.20833333333331,257.04266594418857 198.79166666666666,167.09622324573286 229.375,177.6480953671092 259.9583333333333,187.3882850176104 290.54166666666663,152.42581414250878 321.125,231.6400108371715 351.7083333333333,226.22879436467082 382.29166666666663,228.12272013004605 412.875,218.59296667569765 443.4583333333333,190.90557572473585 474.04166666666663,236.6904795448388 504.625,193.97193172581956 535.2083333333333,133.8773665673259 565.7916666666666,179.51195881874833 596.375,150.08095367109183 626.9583333333333,161.4745705770794 657.5416666666666,174.91242481712274 688.125,163.69918179355187 718.7083333333333,219.85558385261447" />
  </g>
  <g>
    <text x="25.291666666666664" y="341" text-anchor="middle" style="font-size:12px;fill:rgb(194,194,194);">00</text>
    <text x="55.875" y="341" text-anchor="middle" style="font-size:12px;fill:rgb(194,194,194);">01</text>
    <text x="86.45833333333333" y="341" text-anchor="middle" style="font-size:12px;fill:rgb(194,194,194);">02</text>
    <text x="117.04166666666666" y="341" text-anchor="middle" style="font-size:12px;fill:rgb(194,194,194);">03</text>
    <text x="147.625" y="341" text-anchor="middle" style="font-size:12px;fill:rgb(194,194,194);">04</text>
    <text x="178.20833333333331" y="341" text-anchor="middle" style="font-size:12px;fill:rgb(194,194,194);">05</text>
    <text x="208.79166666666666" y="341" text-anchor="middle" style="font-size:12px;fill:rgb(194,194,194);">06</text>
    <text x="239.375" y="341" text-anchor="middle" style="font-size:12px;fill:rgb(194,194,194);">07</text>
    <text x="269.9583333333333" y="341" text-anchor="middle" style="font-size:12px;fill:rgb(194,194,194);">08</text>
    <text x="300.54166666666663" y="341" text-anchor="middle" style="font-size:12px;fill:rgb(194,194,194);">09</text>
    <text x="331.125" y="341" text-anchor="middle" style="font-size:12px;fill:rgb(194,194,194);">10</text>
    <text x="361.7083333333333" y="341" text-anchor="middle" style="font-size:12px;fill:rgb(194,194,194);">11</text>
    <text x="392.29166666666663" y="341" text-anchor="middle" style="font-size:12px;fill:rgb(194,194,194);">12</text>
    <text x="422.875" y="341" text-anchor="middle" style="font-size:12px;fill:rgb(194,194,194);">13</text>
    <text x="453.4583333333333" y="341" text-anchor="middle" style="font-size:12px;fill:rgb(194,194,194);">14</text>
    <text x="484.04166666666663" y="341" text-anchor="middle" style="font-size:12px;fill:rgb(194,194,194);">15</text>
    <text x="514.625" y="341" text-anchor="middle" style="font-size:12px;fill:rgb(194,194,194);">16</text>
    <text x="545.2083333333333" y="341" text-anchor="middle" style="font-size:12px;fill:rgb(194,194,194);">17</text>
    <text x="575.7916666666666" y="341" text-anchor="middle" style="font-size:12px;fill:rgb(194,194,194);">18</text>
    <text x="606.375" y="341" text-anchor="middle" style="font-size:12px;fill:rgb(194,194,194);">19</text>
    <text x="636.9583333333333" y="341" text-anchor="middle" style="font-size:12px;fill:rgb(194,194,194);">20</text>
    <text x="667.5416666666666" y="341" text-anchor="middle" style="font-size:12px;fill:rgb(194,194,194);">21</text>
    <text x="698.125" y="341" text-anchor="middle" style="font-size:12px;fill:rgb(194,194,194);">22</text>
    <text x="728.7083333333333" y="341" text-anchor="middle" style="font-size:12px;fill:rgb(194,194,194);">23</text>
  </g>
  <g transform="translate(119,355)">
    <rect fill="none" x="0" y="0" width="517" height="30" />
    <g transform="translate(0,3)">
      <rect x="2" y="6" width="12" height="12" rx="6" ry="6" fill="#82CF76" />
      <text x="21" y="17" style="font-size:12px;font-family:OpenSansNormal;fill:#333;">Matchet</text>
    </g>
    <g transform="translate(120,3)">
      <rect x="2" y="6" width="12" height="12" rx="6" ry="6" fill="#DFDFDF" />
      <text x="21" y="17" style="font-size:12px;font-family:OpenSansNormal;fill:#333;">Ikke matchet</text>
    </g>
    <g transform="translate(240,3)">
      <rect x="2" y="6" width="12" height="12" rx="6" ry="6" fill="#59ACE8" />
      <text x="21" y="17" style="font-size:12px;font-family:OpenSansNormal;fill:#333;">Overmatchet</text>
    </g>
    <g transform="translate(360,3)">
      <path d="M 1 13 L 15 13" fill="none" stroke="#FF0000" stroke-width="2" stroke-linecap="round" />
      <text x="21" y="17" style="font-size:12px;font-family:OpenSansNormal;fill:#333;">Årligt forbrug</text>
    </g>
  </g>
</svg>
