<svg clip-rule="evenodd" fill-rule="evenodd" stroke-linejoin="round" stroke-miterlimit="2" viewBox="100 138.353 359.999 123.294" xmlns="http://www.w3.org/2000/svg"><g transform="matrix(1.23245 0 0 1.23245 56.9873 41.0199)"><g fill="#1a2732"><circle cx="285.6" cy="84.3" r="1.7"/><circle cx="246" cy="97.4" r="1.7"/><circle cx="259.2" cy="97.4" r="1.7"/><circle cx="272.4" cy="97.4" r="1.7"/><circle cx="285.6" cy="97.4" r="1.7"/><circle cx="298.8" cy="97.4" r="1.7"/><circle cx="312" cy="97.4" r="1.7"/><circle cx="246" cy="110.5" r="1.7"/><circle cx="259.2" cy="110.5" r="1.7"/><circle cx="272.4" cy="110.5" r="1.7"/><circle cx="285.6" cy="110.5" r="1.7"/><circle cx="298.8" cy="110.5" r="1.7"/><circle cx="312" cy="110.5" r="1.7"/><circle cx="232.8" cy="123.7" r="1.7"/><circle cx="246" cy="123.7" r="1.7"/><circle cx="259.2" cy="123.7" r="1.7"/><circle cx="272.4" cy="123.7" r="1.7"/><circle cx="285.6" cy="123.7" r="1.7"/><circle cx="298.8" cy="123.7" r="1.7"/><circle cx="312" cy="123.7" r="1.7"/><circle cx="325.3" cy="123.7" r="1.7"/><circle cx="232.8" cy="136.8" r="1.7"/><circle cx="246" cy="136.8" r="1.7"/><circle cx="259.2" cy="136.8" r="1.7"/><circle cx="272.4" cy="136.8" r="1.7"/><circle cx="285.6" cy="136.8" r="1.7"/><circle cx="298.8" cy="136.8" r="1.7"/><circle cx="312" cy="136.8" r="1.7"/><circle cx="325.3" cy="136.8" r="1.7"/><circle cx="246" cy="149.9" r="1.7"/><circle cx="259.2" cy="149.9" r="1.7"/><circle cx="272.4" cy="149.9" r="1.7"/><circle cx="285.6" cy="149.9" r="1.7"/><circle cx="298.8" cy="149.9" r="1.7"/><circle cx="312" cy="149.9" r="1.7"/><circle cx="246" cy="163.1" r="1.7"/><circle cx="259.2" cy="163.1" r="1.7"/><circle cx="272.4" cy="163.1" r="1.7"/><circle cx="285.6" cy="163.1" r="1.7"/><circle cx="298.8" cy="163.1" r="1.7"/><circle cx="312" cy="163.1" r="1.7"/><circle cx="272.4" cy="176.2" r="1.7"/><circle cx="285.6" cy="176.2" r="1.7"/><path d="m247.2 98.6c.7-.7.7-1.8 0-2.5l-10.6-10.6c-.7-.7-1.8-.7-2.5 0s-.7 1.8 0 2.5l10.6 10.6c.7.7 1.8.7 2.5 0zm26.5-13.1c.7-.7.7-1.8 0-2.5l-3.5-3.5c-.7-.7-1.8-.7-2.5 0s-.7 1.8 0 2.5l3.6 3.5c.3.3.8.5 1.2.5s.8-.2 1.2-.5zm-13.2 13.1c.7-.7.7-1.8 0-2.5l-7.8-7.8c-.7-.7-1.8-.7-2.5 0s-.7 1.8 0 2.5l7.8 7.7c.7.8 1.8.8 2.5.1zm-13.2 13.1c.7-.7.6-1.8-.1-2.5l-8.7-8.2c-.7-.7-1.8-.6-2.5.1s-.6 1.8.1 2.5l8.7 8.2c.7.7 1.8.6 2.5-.1zm-13.3 13.2c.7-.7.7-1.8 0-2.5l-5-4.9c-.7-.7-1.8-.7-2.5 0s-.7 1.8 0 2.5l5 4.9c.7.7 1.8.7 2.5 0zm13.2 0c.7-.7.7-1.8 0-2.5l-6.4-6.3c-.7-.7-1.8-.7-2.5 0s-.7 1.8 0 2.5l6.4 6.3c.7.7 1.8.7 2.5 0zm13.3-13.1c.7-.7.7-1.8 0-2.5l-6.4-6.3c-.7-.7-1.8-.7-2.5 0s-.7 1.8 0 2.5l6.4 6.3c.7.7 1.8.7 2.5 0zm13.2-13.2c.7-.7.7-1.8 0-2.5l-6.4-6.3c-.7-.7-1.8-.7-2.5 0s-.7 1.8 0 2.5l6.4 6.3c.3.3.8.5 1.2.5.5.1.9-.1 1.3-.5zm13.2 13.2c.7-.7.7-1.8 0-2.5l-4-4c-.7-.7-1.8-.7-2.5 0s-.7 1.8 0 2.5l4 4c.3.3.8.5 1.2.5.5 0 .9-.2 1.3-.5zm13.2-13.2c.7-.7.7-1.8 0-2.5l-1.7-1.7c-.7-.7-1.8-.7-2.5 0s-.7 1.8 0 2.5l1.7 1.7c.3.3.8.5 1.2.5.5.1 1-.1 1.3-.5zm-13.2-13.1c.7-.7.7-1.8 0-2.5l-2.1-2.1c-.7-.7-1.8-.7-2.5 0s-.7 1.8 0 2.5l2.1 2.1c.3.3.8.5 1.2.5.5 0 .9-.2 1.3-.5zm-13.2 26.3c.7-.7.7-1.8 0-2.5l-6.4-6.3c-.7-.7-1.8-.7-2.5 0s-.7 1.8 0 2.5l6.4 6.3c.3.3.8.5 1.2.5.5 0 .9-.2 1.3-.5zm13.2-13.2c.7-.7.7-1.8 0-2.5l-4.5-4.5c-.7-.7-1.8-.7-2.5 0s-.7 1.8 0 2.5l4.5 4.5c.3.3.8.5 1.2.5.5.1 1-.1 1.3-.5zm-13.2 39.4c.7-.7.7-1.8 0-2.5l-2.1-2.1c-.7-.7-1.8-.7-2.5 0s-.7 1.8 0 2.5l2.1 2.1c.3.3.8.5 1.2.5.5.1.9-.1 1.3-.5zm0-13.1c.7-.7.7-1.8 0-2.5l-3.5-3.5c-.7-.7-1.8-.7-2.5 0s-.7 1.8 0 2.5l3.6 3.5c.3.3.8.5 1.2.5s.8-.2 1.2-.5zm-13.2 0c.7-.7.7-1.8 0-2.5l-4.5-4.4c-.7-.7-1.8-.7-2.5 0s-.7 1.8 0 2.5l4.5 4.4c.7.7 1.8.7 2.5 0zm-13.3 13.1c.7-.7.7-1.8 0-2.5l-4.5-4.5c-.7-.7-1.8-.7-2.5 0s-.7 1.8 0 2.5l4.5 4.5c.7.7 1.9.7 2.5 0zm0 13.2c.7-.7.7-1.8 0-2.5l-3.6-3.5c-.7-.7-1.8-.7-2.5 0s-.7 1.8 0 2.5l3.6 3.5c.3.3.8.5 1.2.5.6 0 1-.2 1.3-.5zm0 13.1c.7-.7.7-1.8 0-2.5l-1.7-1.7c-.7-.7-1.8-.7-2.5 0s-.7 1.8 0 2.5l1.7 1.7c.7.7 1.9.7 2.5 0zm-13.2-26.3c.7-.7.7-1.8 0-2.5l-3.6-3.5c-.7-.7-1.8-.7-2.5 0s-.7 1.8 0 2.5l3.6 3.5c.7.7 1.8.7 2.5 0zm26.5 0c.7-.7.7-1.8 0-2.5l-3.6-3.5c-.7-.7-1.8-.7-2.5 0s-.7 1.8 0 2.5l3.6 3.5c.7.7 1.8.7 2.5 0z" fill-rule="nonzero"/></g><path d="m136.2 155.1v15.8c0 .9-.1 1.9-.3 2.8-.4 2.7-2.5 4.7-5.2 5-3.6.6-7.3.3-10.8-.7-1-.3-1.2-.6-1.1-1.4 0-.5.3-.8.8-.7l1.2.3c3 1 6.3 1.3 9.5.8 2.2-.3 3.2-1.4 3.6-3.6.1-.5.2-1 .2-1.5 0-.6-.2-.9-.9-.8-1 .1-2.1.3-3.1.4-2.4.3-4.8.2-7.2-.1-2.8-.3-5-2.4-5.4-5.1-.7-3.4-.6-6.9.1-10.3.7-3.1 2.7-4.8 5.9-5.1 2.8-.3 5.6-.3 8.3.2.7.1 1.4.3 2 .6 1.4.5 2.4 1.9 2.4 3.4zm-2.1 6.2v-6.3c0-1.2-.4-1.7-1.6-2.1l-.3-.1c-2.9-.5-5.8-.6-8.7-.2-2.1 0-3.9 1.7-4 3.8-.5 3-.5 6.1-.1 9.1.3 2.4 1.5 3.5 3.9 3.9.6.1 1.2.2 1.8.2 2.5.2 5 0 7.5-.4 1.2-.2 1.4-.6 1.4-1.8.2-2 .1-4 .1-6.1zm-89.1-2.9h-6.8c-.9 0-1 .1-1 1-.1 2.2 0 4.3.3 6.4 0 .2.1.5.1.7.6 2.3 2 3.4 4.6 3.6 2.3.1 4.5.1 6.8.1h4.5c.5-.1 1 .3 1 .8 0 .2 0 .4-.1.6-.1.3-.5.5-.8.5h-10.5c-.9 0-1.8-.1-2.7-.3-2.4-.3-4.3-2.1-4.8-4.4-.5-2.2-.7-4.4-.7-6.6 0-2.7 0-5.5.1-8.2.1-1.4.3-2.9.6-4.3.5-2.6 2.6-4.5 5.2-4.6.9-.1 1.8-.2 2.7-.2h10c.8 0 1.1.4 1 1.1-.1.6-.4.8-1.1.8h-9.1c-.8 0-1.7 0-2.5.1-2.2 0-4.1 1.7-4.3 3.9-.4 2.1-.5 4.2-.4 6.3 0 .5.2.7.7.7h14c.7 0 1 .2 1.1.7.2.5-.1 1-.5 1.2-.2.1-.3.1-.5 0zm51.5 4.1h-12.9c-.9 0-1.1.2-1.1 1.1 0 1 .2 2 .3 3 .3 1.9 1.8 3.3 3.6 3.6 3 .6 6.1.4 9-.4.4-.1.9-.3 1.3-.4.6-.2 1 0 1.1.3.2.5 0 1.2-.5 1.4s-.9.3-1.4.4c-3.1.8-6.3 1-9.5.5-3.2-.4-5-2.1-5.7-5.2-.8-3.6-.8-7.3 0-10.9.4-2.8 2.8-5 5.6-5.2 2.4-.4 4.9-.3 7.3.2 2.8.4 4.9 2.7 5 5.6.1 1.2.2 2.4.2 3.6 0 1.6-.7 2.3-2.3 2.4zm-6.8-1.8h6.3c.7 0 .9-.2.9-.8-.1-1.3-.1-2.7-.3-4-.2-1.8-1.6-3.2-3.3-3.3-2.3-.4-4.6-.4-6.8 0-1.8.2-3.3 1.6-3.6 3.4-.2 1.1-.3 2.3-.4 3.4-.1 1.2 0 1.2 1.2 1.2zm59.2 13.9v-3c0-.8-.2-1-.9-1.1-1.9-.3-3.5-1.7-4-3.7-1.1-4-2.2-8.1-3.3-12.1-.2-.8-.4-1.6-.6-2.3v-.2c-.2-.8 0-1.2.5-1.3.6-.3 1.2 0 1.5.6 0 .1.1.1.1.2.4 1.4.8 2.9 1.2 4.4.9 3.4 1.8 6.9 2.8 10.3.5 1.9 1.4 2.5 3.3 2.5h1.6c1.3.1 2.4-.7 2.8-1.9.4-1.1.7-2.2 1-3.3 1-3.8 2-7.6 3-11.4 0-.2.1-.4.2-.6.2-.6.9-1 1.5-.8.1 0 .1 0 .2.1.5.2.5.6.4 1-.2.8-.4 1.5-.6 2.3l-3.4 12.2c-.2.9-.6 1.8-1.2 2.5-.7.8-1.7 1.4-2.8 1.6-.8.2-1 .4-1 1.2v5.9c0 .8-.3 1.1-1 1.1s-1-.3-1-1v-3.2zm-90.2-11.9v-7.4c0-.6.1-1.2.1-1.7.1-.9.7-1.7 1.6-2 1.1-.3 2.2-.6 3.3-.7 2.2-.3 4.5-.3 6.7 0 3.3.5 4.9 2.1 5.5 5.4.2 1.2.3 2.4.3 3.5v11.2c0 .8-.3 1.1-1.1 1.1s-1-.3-1-1.1v-11.8c0-1-.1-1.9-.3-2.8-.2-2.1-1.9-3.8-4.1-3.8-2.5-.3-4.9-.2-7.4.3-1.2.3-1.6.8-1.6 2.1v16.1c0 .7-.3 1-1 1s-1.1-.2-1.1-1c0-2.8.1-5.6.1-8.4zm44.4 8.3v-16c0-.6.1-1.2.2-1.8.1-.9.7-1.7 1.6-1.9 1.1-.3 2.3-.5 3.4-.7 1.8-.2 3.7-.1 5.5.3.3 0 .5.1.8.2.6.1.9.7.8 1.3 0 .1 0 .1-.1.2-.1.4-.5.5-1.1.4s-1.3-.3-2-.4c-1.7-.3-3.5-.3-5.2 0-1.4.3-1.8.7-1.8 2.1v16.3c0 .8-.3 1.1-1.1 1.1s-1-.3-1-1.1zm123.9-7.6v7.9c0 .9-.1 1.8-.3 2.7-.5 2.5-2.5 4.4-5 4.6-3.9.7-7.8.5-11.7-.5-1.3-.3-2-1.6-1.7-2.8 0-.2.1-.4.2-.6.2-.5.8-.8 1.4-.6 1 .2 1.9.5 2.9.7 2.4.6 5 .6 7.5.2 1.9-.4 2.5-1.7 2.6-3.6 0-.6-.5-.7-1-.7-1.4.2-2.9.3-4.3.3-1.8 0-3.6-.1-5.3-.4-2.4-.4-4.4-2.3-4.8-4.7-.5-2.3-.6-4.8-.4-7.1.1-1 .2-2 .4-3 .5-2.9 2.8-5.1 5.8-5.3 3.3-.5 6.6-.4 9.8.2 2.9.6 4.1 2 4.1 5zm-4.2-2.4v-4.6c.1-1-.6-1.9-1.6-2.1h-.2c-2.2-.4-4.4-.5-6.6-.1-1.5.1-2.8 1.3-2.9 2.9-.4 2.4-.4 4.8 0 7.1.1 1.6 1.4 2.9 3 2.9 2.3.3 4.5.3 6.8-.1 1.2-.2 1.6-.6 1.6-1.9-.1-1.2-.1-2.8-.1-4.1zm-19.5 1.7v3.6c0 3.4-1.3 5-4.6 5.6-3 .6-6.1.6-9.1 0-2.8-.3-5-2.7-5.1-5.5-.1-.9-.1-1.8 0-2.8.1-1.9 1.4-3.6 3.3-4.1 2.2-.6 4.6-.9 6.9-.6 1.1 0 2.2.2 3.3.3.8.1 1-.1 1-.9 0-.3 0-.7-.1-1 0-1.8-1.4-3.2-3.2-3.3-2.4-.2-4.9 0-7.2.6-.6.2-1.2.3-1.8.3-.5.1-1.1-.3-1.2-.8v-1.1c-.2-.9.4-1.8 1.3-2h.2c2.1-.6 4.2-.9 6.3-.9 1.5 0 2.9.1 4.4.2 3.3.5 5 2.3 5.4 5.8.3 2.1.3 4.3.4 6.5zm-9.3-.9c-1.1.1-2.4.2-3.6.5-.9.2-1.6.9-1.6 1.8-.1.8-.1 1.7.1 2.5.1 1 .9 1.8 1.9 2 2.4.5 4.9.5 7.2-.1.7-.1 1.2-.7 1.1-1.4v-3.7c.1-.5-.3-1.1-.8-1.1h-.2zm-19.1-2.3v10.9c0 1.3-.4 1.7-1.7 1.7h-1.2c-.7.1-1.3-.4-1.4-1.1v-22.3c0-1.2-.1-1.2-1.3-1.2h-7c-1.3 0-1.8-.4-1.8-1.7v-.9c0-.7.6-1.2 1.3-1.2h21.2c.7 0 1.4 0 1.7.8.4.8.3 1.8-.2 2.6-.4.3-.9.5-1.4.5h-7.2c-1 0-1.1.1-1.1 1.1z" fill="#f4977a" fill-rule="nonzero"/></g></svg>
