<svg class="highcharts-root" xmlns="http://www.w3.org/2000/svg" viewBox="0 0 754 400" preserveAspectRatio="xMidYMid meet" style="width: 100%; height: auto; display: block;" role="img">
  <defs>
    <filter id="drop-shadow">
      <feDropShadow dx="1" dy="1" flood-color="#000000" flood-opacity="0.75" stdDeviation="2.5" />
    </filter>
    <clipPath id="chart-area">
      <rect x="0" y="0" width="594" height="304" fill="none" />
    </clipPath>
  </defs>
  <rect fill="#F9FAFB" class="highcharts-background" x="0" y="0" width="754" height="400" rx="0" ry="0" />
  <g class="highcharts-grid highcharts-xaxis-grid" data-z-index="1">
    <path fill="none" stroke="#e6e6e6" stroke-width="0" data-z-index="1" class="highcharts-grid-line" d="M 80 10 L 80 314" opacity="1" />
    <path fill="none" stroke="#e6e6e6" stroke-width="0" data-z-index="1" class="highcharts-grid-line" d="M 104.75 10 L 104.75 314" opacity="1" />
    <path fill="none" stroke="#e6e6e6" stroke-width="0" data-z-index="1" class="highcharts-grid-line" d="M 129.5 10 L 129.5 314" opacity="1" />
    <path fill="none" stroke="#e6e6e6" stroke-width="0" data-z-index="1" class="highcharts-grid-line" d="M 154.25 10 L 154.25 314" opacity="1" />
    <path fill="none" stroke="#e6e6e6" stroke-width="0" data-z-index="1" class="highcharts-grid-line" d="M 179 10 L 179 314" opacity="1" />
    <path fill="none" stroke="#e6e6e6" stroke-width="0" data-z-index="1" class="highcharts-grid-line" d="M 203.75 10 L 203.75 314" opacity="1" />
    <path fill="none" stroke="#e6e6e6" stroke-width="0" data-z-index="1" class="highcharts-grid-line" d="M 228.5 10 L 228.5 314" opacity="1" />
    <path fill="none" stroke="#e6e6e6" stroke-width="0" data-z-index="1" class="highcharts-grid-line" d="M 253.25 10 L 253.25 314" opacity="1" />
    <path fill="none" stroke="#e6e6e6" stroke-width="0" data-z-index="1" class="highcharts-grid-line" d="M 278 10 L 278 314" opacity="1" />
    <path fill="none" stroke="#e6e6e6" stroke-width="0" data-z-index="1" class="highcharts-grid-line" d="M 302.75 10 L 302.75 314" opacity="1" />
    <path fill="none" stroke="#e6e6e6" stroke-width="0" data-z-index="1" class="highcharts-grid-line" d="M 327.5 10 L 327.5 314" opacity="1" />
    <path fill="none" stroke="#e6e6e6" stroke-width="0" data-z-index="1" class="highcharts-grid-line" d="M 352.25 10 L 352.25 314" opacity="1" />
    <path fill="none" stroke="#e6e6e6" stroke-width="0" data-z-index="1" class="highcharts-grid-line" d="M 377 10 L 377 314" opacity="1" />
    <path fill="none" stroke="#e6e6e6" stroke-width="0" data-z-index="1" class="highcharts-grid-line" d="M 401.75 10 L 401.75 314" opacity="1" />
    <path fill="none" stroke="#e6e6e6" stroke-width="0" data-z-index="1" class="highcharts-grid-line" d="M 426.5 10 L 426.5 314" opacity="1" />
    <path fill="none" stroke="#e6e6e6" stroke-width="0" data-z-index="1" class="highcharts-grid-line" d="M 451.25 10 L 451.25 314" opacity="1" />
    <path fill="none" stroke="#e6e6e6" stroke-width="0" data-z-index="1" class="highcharts-grid-line" d="M 476 10 L 476 314" opacity="1" />
    <path fill="none" stroke="#e6e6e6" stroke-width="0" data-z-index="1" class="highcharts-grid-line" d="M 500.75 10 L 500.75 314" opacity="1" />
    <path fill="none" stroke="#e6e6e6" stroke-width="0" data-z-index="1" class="highcharts-grid-line" d="M 525.5 10 L 525.5 314" opacity="1" />
    <path fill="none" stroke="#e6e6e6" stroke-width="0" data-z-index="1" class="highcharts-grid-line" d="M 550.25 10 L 550.25 314" opacity="1" />
    <path fill="none" stroke="#e6e6e6" stroke-width="0" data-z-index="1" class="highcharts-grid-line" d="M 575 10 L 575 314" opacity="1" />
    <path fill="none" stroke="#e6e6e6" stroke-width="0" data-z-index="1" class="highcharts-grid-line" d="M 599.75 10 L 599.75 314" opacity="1" />
    <path fill="none" stroke="#e6e6e6" stroke-width="0" data-z-index="1" class="highcharts-grid-line" d="M 624.5 10 L 624.5 314" opacity="1" />
    <path fill="none" stroke="#e6e6e6" stroke-width="0" data-z-index="1" class="highcharts-grid-line" d="M 649.25 10 L 649.25 314" opacity="1" />
    <path fill="none" stroke="#e6e6e6" stroke-width="0" data-z-index="1" class="highcharts-grid-line" d="M 674 10 L 674 314" opacity="1" />
  </g>
  <g class="highcharts-axis highcharts-xaxis" data-z-index="2">
    <path fill="none" class="highcharts-axis-line" stroke="#ffffff" stroke-width="1" d="M 80 314.5 L 674 314.5" />
  </g>
  <g class="highcharts-series-group" data-z-index="3" transform="translate(80,10)">
    <g class="highcharts-series highcharts-series-0 highcharts-column-series" data-z-index="0.1" opacity="1" clip-path="url(#chart-area)">
      <rect x="2.475" y="264.7987428881062" width="19.8" height="39.201257111893796" fill="#DFDFDF" />
      <rect x="27.225" y="249.2565266865348" width="19.8" height="54.74347331346519" fill="#DFDFDF" />
      <rect x="51.975" y="252.35294500135464" width="19.8" height="51.64705499864536" fill="#DFDFDF" />
      <rect x="76.725" y="254.84811704145218" width="19.8" height="49.15188295854782" fill="#DFDFDF" />
      <rect x="101.475" y="271.6830127336765" width="19.8" height="32.316987266323494" fill="#DFDFDF" />
      <rect x="126.225" y="257.04266594418857" width="19.8" height="46.95733405581143" fill="#DFDFDF" />
      <rect x="150.975" y="167.09622324573286" width="19.8" height="136.90377675426714" fill="#DFDFDF" />
      <rect x="175.725" y="177.64809536710916" width="19.8" height="71.14431861284206" fill="#DFDFDF" />
      <rect x="200.475" y="187.3882850176104" width="19.8" height="6.130652939582776" fill="#DFDFDF" />
      <rect x="423.225" y="133.87736656732594" width="19.8" height="16.98603088593877" fill="#DFDFDF" />
      <rect x="447.975" y="179.51195881874833" width="19.8" height="47.676770522893506" fill="#DFDFDF" />
      <rect x="472.725" y="150.08095367109183" width="19.8" height="153.91904632890817" fill="#DFDFDF" />
      <rect x="497.475" y="161.4745705770794" width="19.8" height="142.5254294229206" fill="#DFDFDF" />
      <rect x="522.225" y="174.91242481712274" width="19.8" height="129.08757518287726" fill="#DFDFDF" />
      <rect x="546.975" y="163.69918179355187" width="19.8" height="140.30081820644813" fill="#DFDFDF" />
      <rect x="571.725" y="219.85558385261447" width="19.8" height="84.14441614738553" fill="#DFDFDF" />
    </g>
    <g class="highcharts-series highcharts-series-1 highcharts-column-series" data-z-index="0.1" opacity="1" clip-path="url(#chart-area)">
      <rect x="225.225" y="136.98531563261986" width="19.8" height="15.440498509888915" fill="#59ACE8" />
      <rect x="249.975" y="81.6294771064752" width="19.8" height="150.0105337306963" fill="#59ACE8" />
      <rect x="274.725" y="27.937361148740194" width="19.8" height="198.29143321593062" fill="#59ACE8" />
      <rect x="299.475" y="29.996423733405564" width="19.8" height="198.1262963966405" fill="#59ACE8" />
      <rect x="324.225" y="12.807369276618758" width="19.8" height="205.78559739907888" fill="#59ACE8" />
      <rect x="348.975" y="0.6506637767542287" width="19.8" height="190.2549119479816" fill="#59ACE8" />
      <rect x="373.725" y="-1.4210854715202004E-14" width="19.8" height="236.6904795448388" fill="#59ACE8" />
      <rect x="398.475" y="74.31568680574372" width="19.8" height="119.65624492007584" fill="#59ACE8" />
    </g>
    <g class="highcharts-series highcharts-series-2 highcharts-column-series" data-z-index="0.1" opacity="1" clip-path="url(#chart-area)">
      <rect x="175.725" y="248.79241397995122" width="19.8" height="55.20758602004877" fill="#82CF76" />
      <rect x="200.475" y="193.51893795719317" width="19.8" height="110.48106204280683" fill="#82CF76" />
      <rect x="225.225" y="152.42581414250878" width="19.8" height="151.57418585749122" fill="#82CF76" />
      <rect x="249.975" y="231.6400108371715" width="19.8" height="72.3599891628285" fill="#82CF76" />
      <rect x="274.725" y="226.22879436467082" width="19.8" height="77.77120563532918" fill="#82CF76" />
      <rect x="299.475" y="228.12272013004605" width="19.8" height="75.87727986995394" fill="#82CF76" />
      <rect x="324.225" y="218.59296667569765" width="19.8" height="85.40703332430236" fill="#82CF76" />
      <rect x="348.975" y="190.90557572473585" width="19.8" height="113.09442427526416" fill="#82CF76" />
      <rect x="373.725" y="236.6904795448388" width="19.8" height="67.3095204551612" fill="#82CF76" />
      <rect x="398.475" y="193.97193172581956" width="19.8" height="110.02806827418044" fill="#82CF76" />
      <rect x="423.225" y="150.8633974532647" width="19.8" height="153.1366025467353" fill="#82CF76" />
      <rect x="447.975" y="227.18872934164182" width="19.8" height="76.81127065835817" fill="#82CF76" />
    </g>
    <g class="highcharts-series highcharts-series-3 highcharts-line-series" data-z-index="10" opacity="1" clip-path="url(#chart-area)">
      <path fill="none" class="highcharts-graph" d="M 12.375,264.7987428881062 37.125,249.2565266865348 61.875,252.35294500135464 86.625,254.84811704145218 111.375,271.6830127336765 136.125,257.04266594418857 160.875,167.09622324573286 185.625,177.6480953671092 210.375,187.3882850176104 235.125,152.42581414250878 259.875,231.6400108371715 284.625,226.22879436467082 309.375,228.12272013004605 334.125,218.59296667569765 358.875,190.90557572473585 383.625,236.6904795448388 408.375,193.97193172581956 433.125,133.8773665673259 457.875,179.51195881874833 482.625,150.08095367109183 507.375,161.4745705770794 532.125,174.91242481712274 556.875,163.69918179355187 581.625,219.85558385261447" stroke="#FF0000" stroke-width="2" stroke-linejoin="round" stroke-linecap="round" />
    </g>
  </g>
  <g class="highcharts-axis-labels highcharts-xaxis-labels" data-z-index="7">
    <text x="92.375" y="341" text-anchor="middle" style="cursor: default; font-size: 12px; fill: rgb(194,194,194);">00</text>
    <text x="117.125" y="341" text-anchor="middle" style="cursor: default; font-size: 12px; fill: rgb(194,194,194);">01</text>
    <text x="141.875" y="341" text-anchor="middle" style="cursor: default; font-size: 12px; fill: rgb(194,194,194);">02</text>
    <text x="166.625" y="341" text-anchor="middle" style="cursor: default; font-size: 12px; fill: rgb(194,194,194);">03</text>
    <text x="191.375" y="341" text-anchor="middle" style="cursor: default; font-size: 12px; fill: rgb(194,194,194);">04</text>
    <text x="216.125" y="341" text-anchor="middle" style="cursor: default; font-size: 12px; fill: rgb(194,194,194);">05</text>
    <text x="240.875" y="341" text-anchor="middle" style="cursor: default; font-size: 12px; fill: rgb(194,194,194);">06</text>
    <text x="265.625" y="341" text-anchor="middle" style="cursor: default; font-size: 12px; fill: rgb(194,194,194);">07</text>
    <text x="290.375" y="341" text-anchor="middle" style="cursor: default; font-size: 12px; fill: rgb(194,194,194);">08</text>
    <text x="315.125" y="341" text-anchor="middle" style="cursor: default; font-size: 12px; fill: rgb(194,194,194);">09</text>
    <text x="339.875" y="341" text-anchor="middle" style="cursor: default; font-size: 12px; fill: rgb(194,194,194);">10</text>
    <text x="364.625" y="341" text-anchor="middle" style="cursor: default; font-size: 12px; fill: rgb(194,194,194);">11</text>
    <text x="389.375" y="341" text-anchor="middle" style="cursor: default; font-size: 12px; fill: rgb(194,194,194);">12</text>
    <text x="414.125" y="341" text-anchor="middle" style="cursor: default; font-size: 12px; fill: rgb(194,194,194);">13</text>
    <text x="438.875" y="341" text-anchor="middle" style="cursor: default; font-size: 12px; fill: rgb(194,194,194);">14</text>
    <text x="463.625" y="341" text-anchor="middle" style="cursor: default; font-size: 12px; fill: rgb(194,194,194);">15</text>
    <text x="488.375" y="341" text-anchor="middle" style="cursor: default; font-size: 12px; fill: rgb(194,194,194);">16</text>
    <text x="513.125" y="341" text-anchor="middle" style="cursor: default; font-size: 12px; fill: rgb(194,194,194);">17</text>
    <text x="537.875" y="341" text-anchor="middle" style="cursor: default; font-size: 12px; fill: rgb(194,194,194);">18</text>
    <text x="562.625" y="341" text-anchor="middle" style="cursor: default; font-size: 12px; fill: rgb(194,194,194);">19</text>
    <text x="587.375" y="341" text-anchor="middle" style="cursor: default; font-size: 12px; fill: rgb(194,194,194);">20</text>
    <text x="612.125" y="341" text-anchor="middle" style="cursor: default; font-size: 12px; fill: rgb(194,194,194);">21</text>
    <text x="636.875" y="341" text-anchor="middle" style="cursor: default; font-size: 12px; fill: rgb(194,194,194);">22</text>
    <text x="661.625" y="341" text-anchor="middle" style="cursor: default; font-size: 12px; fill: rgb(194,194,194);">23</text>
  </g>
  <g class="highcharts-legend" data-z-index="7" transform="translate(119,355)">
    <rect fill="none" class="highcharts-legend-box" rx="0" ry="0" stroke="#999999" stroke-width="0" x="0" y="0" width="517" height="30" />
    <g data-z-index="1">
      <g>
        <g class="highcharts-legend-item highcharts-column-series" data-z-index="1" transform="translate(8,3)">
          <text x="21" y="17" text-anchor="start" data-z-index="2" style="font-size: 12px; font-family: OpenSansNormal; fill: rgb(51, 51, 51);">Ikke matchet</text>
          <rect x="2" y="6" rx="6" ry="6" width="12" height="12" fill="#DFDFDF" class="highcharts-point" data-z-index="3" />
        </g>
        <g class="highcharts-legend-item highcharts-column-series" data-z-index="1" transform="translate(128,3)">
          <text x="21" y="17" text-anchor="start" data-z-index="2" style="font-size: 12px; font-family: OpenSansNormal; fill: rgb(51, 51, 51);">Overmatchet</text>
          <rect x="2" y="6" rx="6" ry="6" width="12" height="12" fill="#59ACE8" class="highcharts-point" data-z-index="3" />
        </g>
        <g class="highcharts-legend-item highcharts-column-series" data-z-index="1" transform="translate(248,3)">
          <text x="21" y="17" text-anchor="start" data-z-index="2" style="font-size: 12px; font-family: OpenSansNormal; fill: rgb(51, 51, 51);">Matchet</text>
          <rect x="2" y="6" rx="6" ry="6" width="12" height="12" fill="#82CF76" class="highcharts-point" data-z-index="3" />
        </g>
        <g class="highcharts-legend-item highcharts-line-series" data-z-index="1" transform="translate(368,3)">
          <path fill="none" class="highcharts-graph" stroke-width="2" stroke-linecap="round" d="M 1 13 L 15 13" stroke="#FF0000" />
          <text x="21" y="17" text-anchor="start" data-z-index="2" style="font-size: 12px; font-family: OpenSansNormal; fill: rgb(51, 51, 51);">Årligt forbrug</text>
        </g>
      </g>
    </g>
  </g>
  <g class="highcharts-axis-labels highcharts-yaxis-labels" data-z-index="7">
    <text x="75" y="314" text-anchor="end" style="font-size: 12px; fill: rgb(194,194,194);">0 Wh</text>
    <text x="75" y="253.87537252777025" text-anchor="end" style="font-size: 12px; fill: rgb(194,194,194);">20 Wh</text>
    <text x="75" y="193.7507450555405" text-anchor="end" style="font-size: 12px; fill: rgb(194,194,194);">40 Wh</text>
    <text x="75" y="133.62611758331076" text-anchor="end" style="font-size: 12px; fill: rgb(194,194,194);">60 Wh</text>
    <text x="75" y="73.50149011108101" text-anchor="end" style="font-size: 12px; fill: rgb(194,194,194);">80 Wh</text>
    <text x="75" y="10.370631265239751" text-anchor="end" style="font-size: 12px; fill: rgb(194,194,194);">101 Wh</text>
  </g>
  <g class="highcharts-axis highcharts-yaxis-left">
    <line x1="80" y1="10" x2="80" y2="314" stroke="FFA500" stroke-width="2" />
  </g>
</svg>