<svg class="highcharts-root" xmlns="http://www.w3.org/2000/svg" viewBox="0 0 754 400" preserveAspectRatio="xMidYMid meet" style="width: 100%; height: auto; display: block;" role="img">
  <defs>
    <filter id="drop-shadow">
      <feDropShadow dx="1" dy="1" flood-color="#000000" flood-opacity="0.75" stdDeviation="2.5" />
    </filter>
    <clipPath id="chart-area">
      <rect x="0" y="0" width="594" height="304" fill="none" />
    </clipPath>
  </defs>
  <rect fill="#F9FAFB" class="highcharts-background" x="0" y="0" width="754" height="400" rx="0" ry="0" />
  <g class="highcharts-grid highcharts-xaxis-grid" data-z-index="1">
    <path fill="none" stroke="#e6e6e6" stroke-width="0" data-z-index="1" class="highcharts-grid-line" d="M 80 10 L 80 314" opacity="1" />
    <path fill="none" stroke="#e6e6e6" stroke-width="0" data-z-index="1" class="highcharts-grid-line" d="M 104.75 10 L 104.75 314" opacity="1" />
    <path fill="none" stroke="#e6e6e6" stroke-width="0" data-z-index="1" class="highcharts-grid-line" d="M 129.5 10 L 129.5 314" opacity="1" />
    <path fill="none" stroke="#e6e6e6" stroke-width="0" data-z-index="1" class="highcharts-grid-line" d="M 154.25 10 L 154.25 314" opacity="1" />
    <path fill="none" stroke="#e6e6e6" stroke-width="0" data-z-index="1" class="highcharts-grid-line" d="M 179 10 L 179 314" opacity="1" />
    <path fill="none" stroke="#e6e6e6" stroke-width="0" data-z-index="1" class="highcharts-grid-line" d="M 203.75 10 L 203.75 314" opacity="1" />
    <path fill="none" stroke="#e6e6e6" stroke-width="0" data-z-index="1" class="highcharts-grid-line" d="M 228.5 10 L 228.5 314" opacity="1" />
    <path fill="none" stroke="#e6e6e6" stroke-width="0" data-z-index="1" class="highcharts-grid-line" d="M 253.25 10 L 253.25 314" opacity="1" />
    <path fill="none" stroke="#e6e6e6" stroke-width="0" data-z-index="1" class="highcharts-grid-line" d="M 278 10 L 278 314" opacity="1" />
    <path fill="none" stroke="#e6e6e6" stroke-width="0" data-z-index="1" class="highcharts-grid-line" d="M 302.75 10 L 302.75 314" opacity="1" />
    <path fill="none" stroke="#e6e6e6" stroke-width="0" data-z-index="1" class="highcharts-grid-line" d="M 327.5 10 L 327.5 314" opacity="1" />
    <path fill="none" stroke="#e6e6e6" stroke-width="0" data-z-index="1" class="highcharts-grid-line" d="M 352.25 10 L 352.25 314" opacity="1" />
    <path fill="none" stroke="#e6e6e6" stroke-width="0" data-z-index="1" class="highcharts-grid-line" d="M 377 10 L 377 314" opacity="1" />
    <path fill="none" stroke="#e6e6e6" stroke-width="0" data-z-index="1" class="highcharts-grid-line" d="M 401.75 10 L 401.75 314" opacity="1" />
    <path fill="none" stroke="#e6e6e6" stroke-width="0" data-z-index="1" class="highcharts-grid-line" d="M 426.5 10 L 426.5 314" opacity="1" />
    <path fill="none" stroke="#e6e6e6" stroke-width="0" data-z-index="1" class="highcharts-grid-line" d="M 451.25 10 L 451.25 314" opacity="1" />
    <path fill="none" stroke="#e6e6e6" stroke-width="0" data-z-index="1" class="highcharts-grid-line" d="M 476 10 L 476 314" opacity="1" />
    <path fill="none" stroke="#e6e6e6" stroke-width="0" data-z-index="1" class="highcharts-grid-line" d="M 500.75 10 L 500.75 314" opacity="1" />
    <path fill="none" stroke="#e6e6e6" stroke-width="0" data-z-index="1" class="highcharts-grid-line" d="M 525.5 10 L 525.5 314" opacity="1" />
    <path fill="none" stroke="#e6e6e6" stroke-width="0" data-z-index="1" class="highcharts-grid-line" d="M 550.25 10 L 550.25 314" opacity="1" />
    <path fill="none" stroke="#e6e6e6" stroke-width="0" data-z-index="1" class="highcharts-grid-line" d="M 575 10 L 575 314" opacity="1" />
    <path fill="none" stroke="#e6e6e6" stroke-width="0" data-z-index="1" class="highcharts-grid-line" d="M 599.75 10 L 599.75 314" opacity="1" />
    <path fill="none" stroke="#e6e6e6" stroke-width="0" data-z-index="1" class="highcharts-grid-line" d="M 624.5 10 L 624.5 314" opacity="1" />
    <path fill="none" stroke="#e6e6e6" stroke-width="0" data-z-index="1" class="highcharts-grid-line" d="M 649.25 10 L 649.25 314" opacity="1" />
    <path fill="none" stroke="#e6e6e6" stroke-width="0" data-z-index="1" class="highcharts-grid-line" d="M 674 10 L 674 314" opacity="1" />
  </g>
  <g class="highcharts-axis highcharts-xaxis" data-z-index="2">
    <path fill="none" class="highcharts-axis-line" stroke="#ffffff" stroke-width="1" d="M 80 314.5 L 674 314.5" />
  </g>
  <g class="highcharts-series-group" data-z-index="3" transform="translate(80,10)">
    <g class="highcharts-series highcharts-series-0 highcharts-column-series" data-z-index="0.1" opacity="1" clip-path="url(#chart-area)">
      <rect x="2.475" y="264.8121689519328" width="19.8" height="39.187831048067224" fill="#DFDFDF" />
      <rect x="27.225" y="249.25416871072937" width="19.8" height="54.74583128927063" fill="#DFDFDF" />
      <rect x="51.975" y="252.3744057243045" width="19.8" height="51.6255942756955" fill="#DFDFDF" />
      <rect x="76.725" y="254.855267387426" width="19.8" height="49.144732612574" fill="#DFDFDF" />
      <rect x="101.475" y="271.68868616698484" width="19.8" height="32.31131383301517" fill="#DFDFDF" />
      <rect x="126.225" y="257.06102571026474" width="19.8" height="46.938974289735256" fill="#DFDFDF" />
      <rect x="150.975" y="167.12142669410557" width="19.8" height="136.87857330589443" fill="#DFDFDF" />
      <rect x="175.725" y="177.68358226453478" width="19.8" height="71.09191262286598" fill="#DFDFDF" />
      <rect x="200.475" y="187.42109424662618" width="19.8" height="6.139682043944178" fill="#DFDFDF" />
      <rect x="423.225" y="133.9125615561175" width="19.8" height="16.92444980879106" fill="#DFDFDF" />
      <rect x="447.975" y="179.5511927316093" width="19.8" height="47.655807356319414" fill="#DFDFDF" />
      <rect x="472.725" y="150.11220301830986" width="19.8" height="153.88779698169014" fill="#DFDFDF" />
      <rect x="497.475" y="161.51766228736741" width="19.8" height="142.48233771263259" fill="#DFDFDF" />
      <rect x="522.225" y="174.94427807388993" width="19.8" height="129.05572192611007" fill="#DFDFDF" />
      <rect x="546.975" y="163.74074785547595" width="19.8" height="140.25925214452405" fill="#DFDFDF" />
      <rect x="571.725" y="219.87075946879514" width="19.8" height="84.12924053120484" fill="#DFDFDF" />
    </g>
    <g class="highcharts-series highcharts-series-1 highcharts-column-series" data-z-index="0.1" opacity="1" clip-path="url(#chart-area)">
      <rect x="225.225" y="137.12164771714433" width="19.8" height="15.33986318673901" fill="#59ACE8" />
      <rect x="249.975" y="81.71306116428207" width="19.8" height="149.95248744613167" fill="#59ACE8" />
      <rect x="274.725" y="28.023578353387975" width="19.8" height="198.2285389752507" fill="#59ACE8" />
      <rect x="299.475" y="30.065016329278222" width="19.8" height="198.0589766345014" fill="#59ACE8" />
      <rect x="324.225" y="12.753400271281734" width="19.8" height="205.85420301734888" fill="#59ACE8" />
      <rect x="348.975" y="0.6411263334055235" width="19.8" height="190.28153760923226" fill="#59ACE8" />
      <rect x="373.725" y="-1.4210854715202004E-14" width="19.8" height="236.70444482135815" fill="#59ACE8" />
      <rect x="398.475" y="74.3624383838219" width="19.8" height="119.63301257765235" fill="#59ACE8" />
    </g>
    <g class="highcharts-series highcharts-series-2 highcharts-column-series" data-z-index="0.1" opacity="1" clip-path="url(#chart-area)">
      <rect x="175.725" y="248.77549488740078" width="19.8" height="55.22450511259923" fill="#82CF76" />
      <rect x="200.475" y="193.56077629057035" width="19.8" height="110.43922370942967" fill="#82CF76" />
      <rect x="225.225" y="152.46151090388335" width="19.8" height="151.53848909611665" fill="#82CF76" />
      <rect x="249.975" y="231.66554861041374" width="19.8" height="72.33445138958626" fill="#82CF76" />
      <rect x="274.725" y="226.2521173286387" width="19.8" height="77.74788267136132" fill="#82CF76" />
      <rect x="299.475" y="228.1239929637796" width="19.8" height="75.87600703622039" fill="#82CF76" />
      <rect x="324.225" y="218.60760328863063" width="19.8" height="85.39239671136939" fill="#82CF76" />
      <rect x="348.975" y="190.92266394263777" width="19.8" height="113.07733605736222" fill="#82CF76" />
      <rect x="373.725" y="236.70444482135815" width="19.8" height="67.29555517864186" fill="#82CF76" />
      <rect x="398.475" y="193.99545096147426" width="19.8" height="110.00454903852575" fill="#82CF76" />
      <rect x="423.225" y="150.83701136490856" width="19.8" height="153.16298863509144" fill="#82CF76" />
      <rect x="447.975" y="227.20700008792872" width="19.8" height="76.79299991207128" fill="#82CF76" />
    </g>
    <g class="highcharts-series highcharts-series-3 highcharts-line-series" data-z-index="10" opacity="1" clip-path="url(#chart-area)">
      <path fill="none" class="highcharts-graph" d="M 12.375,264.8121689519328 37.125,249.25416871072937 61.875,252.3744057243045 86.625,254.855267387426 111.375,271.68868616698484 136.125,257.06102571026474 160.875,167.12142669410557 185.625,177.68358226453478 210.375,187.42109424662615 235.125,152.46151090388335 259.875,231.66554861041374 284.625,226.2521173286387 309.375,228.1239929637796 334.125,218.60760328863063 358.875,190.92266394263777 383.625,236.70444482135815 408.375,193.99545096147426 433.125,133.9125615561175 457.875,179.55119273160932 482.625,150.11220301830986 507.375,161.51766228736741 532.125,174.94427807388993 556.875,163.74074785547595 581.625,219.87075946879514" stroke="#FF0000" stroke-width="2" stroke-linejoin="round" stroke-linecap="round" />
    </g>
  </g>
  <g class="highcharts-axis-labels highcharts-xaxis-labels" data-z-index="7">
    <text x="92.375" y="341" text-anchor="middle" style="cursor: default; font-size: 12px; fill: rgb(194,194,194);">00</text>
    <text x="117.125" y="341" text-anchor="middle" style="cursor: default; font-size: 12px; fill: rgb(194,194,194);">01</text>
    <text x="141.875" y="341" text-anchor="middle" style="cursor: default; font-size: 12px; fill: rgb(194,194,194);">02</text>
    <text x="166.625" y="341" text-anchor="middle" style="cursor: default; font-size: 12px; fill: rgb(194,194,194);">03</text>
    <text x="191.375" y="341" text-anchor="middle" style="cursor: default; font-size: 12px; fill: rgb(194,194,194);">04</text>
    <text x="216.125" y="341" text-anchor="middle" style="cursor: default; font-size: 12px; fill: rgb(194,194,194);">05</text>
    <text x="240.875" y="341" text-anchor="middle" style="cursor: default; font-size: 12px; fill: rgb(194,194,194);">06</text>
    <text x="265.625" y="341" text-anchor="middle" style="cursor: default; font-size: 12px; fill: rgb(194,194,194);">07</text>
    <text x="290.375" y="341" text-anchor="middle" style="cursor: default; font-size: 12px; fill: rgb(194,194,194);">08</text>
    <text x="315.125" y="341" text-anchor="middle" style="cursor: default; font-size: 12px; fill: rgb(194,194,194);">09</text>
    <text x="339.875" y="341" text-anchor="middle" style="cursor: default; font-size: 12px; fill: rgb(194,194,194);">10</text>
    <text x="364.625" y="341" text-anchor="middle" style="cursor: default; font-size: 12px; fill: rgb(194,194,194);">11</text>
    <text x="389.375" y="341" text-anchor="middle" style="cursor: default; font-size: 12px; fill: rgb(194,194,194);">12</text>
    <text x="414.125" y="341" text-anchor="middle" style="cursor: default; font-size: 12px; fill: rgb(194,194,194);">13</text>
    <text x="438.875" y="341" text-anchor="middle" style="cursor: default; font-size: 12px; fill: rgb(194,194,194);">14</text>
    <text x="463.625" y="341" text-anchor="middle" style="cursor: default; font-size: 12px; fill: rgb(194,194,194);">15</text>
    <text x="488.375" y="341" text-anchor="middle" style="cursor: default; font-size: 12px; fill: rgb(194,194,194);">16</text>
    <text x="513.125" y="341" text-anchor="middle" style="cursor: default; font-size: 12px; fill: rgb(194,194,194);">17</text>
    <text x="537.875" y="341" text-anchor="middle" style="cursor: default; font-size: 12px; fill: rgb(194,194,194);">18</text>
    <text x="562.625" y="341" text-anchor="middle" style="cursor: default; font-size: 12px; fill: rgb(194,194,194);">19</text>
    <text x="587.375" y="341" text-anchor="middle" style="cursor: default; font-size: 12px; fill: rgb(194,194,194);">20</text>
    <text x="612.125" y="341" text-anchor="middle" style="cursor: default; font-size: 12px; fill: rgb(194,194,194);">21</text>
    <text x="636.875" y="341" text-anchor="middle" style="cursor: default; font-size: 12px; fill: rgb(194,194,194);">22</text>
    <text x="661.625" y="341" text-anchor="middle" style="cursor: default; font-size: 12px; fill: rgb(194,194,194);">23</text>
  </g>
  <g class="highcharts-legend" data-z-index="7" transform="translate(119,355)">
    <rect fill="none" class="highcharts-legend-box" rx="0" ry="0" stroke="#999999" stroke-width="0" x="0" y="0" width="517" height="30" />
    <g data-z-index="1">
      <g>
        <g class="highcharts-legend-item highcharts-column-series" data-z-index="1" transform="translate(8,3)">
          <text x="21" y="17" text-anchor="start" data-z-index="2" style="font-size: 12px; font-family: OpenSansNormal; fill: rgb(51, 51, 51);">Ikke matchet</text>
          <rect x="2" y="6" rx="6" ry="6" width="12" height="12" fill="#DFDFDF" class="highcharts-point" data-z-index="3" />
        </g>
        <g class="highcharts-legend-item highcharts-column-series" data-z-index="1" transform="translate(128,3)">
          <text x="21" y="17" text-anchor="start" data-z-index="2" style="font-size: 12px; font-family: OpenSansNormal; fill: rgb(51, 51, 51);">Overmatchet</text>
          <rect x="2" y="6" rx="6" ry="6" width="12" height="12" fill="#59ACE8" class="highcharts-point" data-z-index="3" />
        </g>
        <g class="highcharts-legend-item highcharts-column-series" data-z-index="1" transform="translate(248,3)">
          <text x="21" y="17" text-anchor="start" data-z-index="2" style="font-size: 12px; font-family: OpenSansNormal; fill: rgb(51, 51, 51);">Matchet</text>
          <rect x="2" y="6" rx="6" ry="6" width="12" height="12" fill="#82CF76" class="highcharts-point" data-z-index="3" />
        </g>
        <g class="highcharts-legend-item highcharts-line-series" data-z-index="1" transform="translate(368,3)">
          <path fill="none" class="highcharts-graph" stroke-width="2" stroke-linecap="round" d="M 1 13 L 15 13" stroke="#FF0000" />
          <text x="21" y="17" text-anchor="start" data-z-index="2" style="font-size: 12px; font-family: OpenSansNormal; fill: rgb(51, 51, 51);">Årligt forbrug</text>
        </g>
      </g>
    </g>
  </g>
  <g class="highcharts-axis-labels highcharts-yaxis-labels" data-z-index="7">
    <text x="75" y="314" text-anchor="end" style="font-size: 12px; fill: rgb(194,194,194);">0.00 MWh</text>
    <text x="75" y="253.2" text-anchor="end" style="font-size: 12px; fill: rgb(194,194,194);">4.56 MWh</text>
    <text x="75" y="192.4" text-anchor="end" style="font-size: 12px; fill: rgb(194,194,194);">9.12 MWh</text>
    <text x="75" y="131.6" text-anchor="end" style="font-size: 12px; fill: rgb(194,194,194);">13.68 MWh</text>
    <text x="75" y="70.80000000000001" text-anchor="end" style="font-size: 12px; fill: rgb(194,194,194);">18.25 MWh</text>
    <text x="75" y="10" text-anchor="end" style="font-size: 12px; fill: rgb(194,194,194);">22.81 MWh</text>
  </g>
  <g class="highcharts-axis highcharts-yaxis-left">
    <line x1="80" y1="10" x2="80" y2="314" stroke="FFA500" stroke-width="2" />
  </g>
</svg>