<svg class="highcharts-root" xmlns="http://www.w3.org/2000/svg" viewBox="0 0 754 400" preserveAspectRatio="xMidYMid meet" style="width: 100%; height: auto; display: block;" role="img">
  <defs>
    <filter id="drop-shadow">
      <feDropShadow dx="1" dy="1" flood-color="#000000" flood-opacity="0.75" stdDeviation="2.5" />
    </filter>
    <clipPath id="chart-area">
      <rect x="0" y="0" width="594" height="304" fill="none" />
    </clipPath>
  </defs>
  <rect fill="#F9FAFB" class="highcharts-background" x="0" y="0" width="754" height="400" rx="0" ry="0" />
  <g class="highcharts-grid highcharts-xaxis-grid" data-z-index="1">
    <path fill="none" stroke="#e6e6e6" stroke-width="0" data-z-index="1" class="highcharts-grid-line" d="M 80 10 L 80 314" opacity="1" />
    <path fill="none" stroke="#e6e6e6" stroke-width="0" data-z-index="1" class="highcharts-grid-line" d="M 104.75 10 L 104.75 314" opacity="1" />
    <path fill="none" stroke="#e6e6e6" stroke-width="0" data-z-index="1" class="highcharts-grid-line" d="M 129.5 10 L 129.5 314" opacity="1" />
    <path fill="none" stroke="#e6e6e6" stroke-width="0" data-z-index="1" class="highcharts-grid-line" d="M 154.25 10 L 154.25 314" opacity="1" />
    <path fill="none" stroke="#e6e6e6" stroke-width="0" data-z-index="1" class="highcharts-grid-line" d="M 179 10 L 179 314" opacity="1" />
    <path fill="none" stroke="#e6e6e6" stroke-width="0" data-z-index="1" class="highcharts-grid-line" d="M 203.75 10 L 203.75 314" opacity="1" />
    <path fill="none" stroke="#e6e6e6" stroke-width="0" data-z-index="1" class="highcharts-grid-line" d="M 228.5 10 L 228.5 314" opacity="1" />
    <path fill="none" stroke="#e6e6e6" stroke-width="0" data-z-index="1" class="highcharts-grid-line" d="M 253.25 10 L 253.25 314" opacity="1" />
    <path fill="none" stroke="#e6e6e6" stroke-width="0" data-z-index="1" class="highcharts-grid-line" d="M 278 10 L 278 314" opacity="1" />
    <path fill="none" stroke="#e6e6e6" stroke-width="0" data-z-index="1" class="highcharts-grid-line" d="M 302.75 10 L 302.75 314" opacity="1" />
    <path fill="none" stroke="#e6e6e6" stroke-width="0" data-z-index="1" class="highcharts-grid-line" d="M 327.5 10 L 327.5 314" opacity="1" />
    <path fill="none" stroke="#e6e6e6" stroke-width="0" data-z-index="1" class="highcharts-grid-line" d="M 352.25 10 L 352.25 314" opacity="1" />
    <path fill="none" stroke="#e6e6e6" stroke-width="0" data-z-index="1" class="highcharts-grid-line" d="M 377 10 L 377 314" opacity="1" />
    <path fill="none" stroke="#e6e6e6" stroke-width="0" data-z-index="1" class="highcharts-grid-line" d="M 401.75 10 L 401.75 314" opacity="1" />
    <path fill="none" stroke="#e6e6e6" stroke-width="0" data-z-index="1" class="highcharts-grid-line" d="M 426.5 10 L 426.5 314" opacity="1" />
    <path fill="none" stroke="#e6e6e6" stroke-width="0" data-z-index="1" class="highcharts-grid-line" d="M 451.25 10 L 451.25 314" opacity="1" />
    <path fill="none" stroke="#e6e6e6" stroke-width="0" data-z-index="1" class="highcharts-grid-line" d="M 476 10 L 476 314" opacity="1" />
    <path fill="none" stroke="#e6e6e6" stroke-width="0" data-z-index="1" class="highcharts-grid-line" d="M 500.75 10 L 500.75 314" opacity="1" />
    <path fill="none" stroke="#e6e6e6" stroke-width="0" data-z-index="1" class="highcharts-grid-line" d="M 525.5 10 L 525.5 314" opacity="1" />
    <path fill="none" stroke="#e6e6e6" stroke-width="0" data-z-index="1" class="highcharts-grid-line" d="M 550.25 10 L 550.25 314" opacity="1" />
    <path fill="none" stroke="#e6e6e6" stroke-width="0" data-z-index="1" class="highcharts-grid-line" d="M 575 10 L 575 314" opacity="1" />
    <path fill="none" stroke="#e6e6e6" stroke-width="0" data-z-index="1" class="highcharts-grid-line" d="M 599.75 10 L 599.75 314" opacity="1" />
    <path fill="none" stroke="#e6e6e6" stroke-width="0" data-z-index="1" class="highcharts-grid-line" d="M 624.5 10 L 624.5 314" opacity="1" />
    <path fill="none" stroke="#e6e6e6" stroke-width="0" data-z-index="1" class="highcharts-grid-line" d="M 649.25 10 L 649.25 314" opacity="1" />
    <path fill="none" stroke="#e6e6e6" stroke-width="0" data-z-index="1" class="highcharts-grid-line" d="M 674 10 L 674 314" opacity="1" />
  </g>
  <g class="highcharts-axis highcharts-xaxis" data-z-index="2">
    <path fill="none" class="highcharts-axis-line" stroke="#ffffff" stroke-width="1" d="M 80 314.5 L 674 314.5" />
  </g>
  <g class="highcharts-series-group" data-z-index="3" transform="translate(80,10)">
    <g class="highcharts-series highcharts-series-0 highcharts-column-series" data-z-index="0.1" opacity="1" clip-path="url(#chart-area)">
      <rect x="2.475" y="264.886101147813" width="19.8" height="39.11389885218697" fill="#DFDFDF" />
      <rect x="27.225" y="249.3785200844843" width="19.8" height="54.6214799155157" fill="#DFDFDF" />
      <rect x="51.975" y="252.46803816866776" width="19.8" height="51.531961831332225" fill="#DFDFDF" />
      <rect x="76.725" y="254.95764982873797" width="19.8" height="49.042350171262036" fill="#DFDFDF" />
      <rect x="101.475" y="271.7550297039103" width="19.8" height="32.24497029608972" fill="#DFDFDF" />
      <rect x="126.225" y="257.1473082767515" width="19.8" height="46.852691723248505" fill="#DFDFDF" />
      <rect x="150.975" y="167.40130722940225" width="19.8" height="136.59869277059775" fill="#DFDFDF" />
      <rect x="175.725" y="177.92966497259061" width="19.8" height="71.03112301120154" fill="#DFDFDF" />
      <rect x="200.475" y="187.64814904322603" width="19.8" height="5.56333494771741" fill="#DFDFDF" />
      <rect x="423.225" y="134.2564772971426" width="19.8" height="17.902999196916902" fill="#DFDFDF" />
      <rect x="447.975" y="179.78937488734186" width="19.8" height="47.73641141124093" fill="#DFDFDF" />
      <rect x="472.725" y="150.42395542699595" width="19.8" height="153.57604457300405" fill="#DFDFDF" />
      <rect x="497.475" y="161.79218216394293" width="19.8" height="142.20781783605707" fill="#DFDFDF" />
      <rect x="522.225" y="175.20009074287512" width="19.8" height="128.79990925712488" fill="#DFDFDF" />
      <rect x="546.975" y="164.0118359331621" width="19.8" height="139.9881640668379" fill="#DFDFDF" />
      <rect x="571.725" y="220.04309594534408" width="19.8" height="83.95690405465594" fill="#DFDFDF" />
    </g>
    <g class="highcharts-series highcharts-series-1 highcharts-column-series" data-z-index="0.1" opacity="1" clip-path="url(#chart-area)" />
    <g class="highcharts-series highcharts-series-2 highcharts-column-series" data-z-index="0.1" opacity="1" clip-path="url(#chart-area)">
      <rect x="175.725" y="248.96078798379216" width="19.8" height="55.03921201620785" fill="#82CF76" />
      <rect x="200.475" y="193.21148399094344" width="19.8" height="110.78851600905656" fill="#82CF76" />
      <rect x="225.225" y="139.46544012402967" width="19.8" height="164.53455987597033" fill="#82CF76" />
      <rect x="249.975" y="83.4070446185269" width="19.8" height="220.5929553814731" fill="#82CF76" />
      <rect x="274.725" y="28.589814415033345" width="19.8" height="275.41018558496665" fill="#82CF76" />
      <rect x="299.475" y="28.088818589832783" width="19.8" height="275.9111814101672" fill="#82CF76" />
      <rect x="324.225" y="12.78882158503967" width="19.8" height="291.21117841496033" fill="#82CF76" />
      <rect x="348.975" y="0" width="19.8" height="304" fill="#82CF76" />
      <rect x="373.725" y="0.254097351144992" width="19.8" height="303.745902648855" fill="#82CF76" />
      <rect x="398.475" y="75.00944766113807" width="19.8" height="228.99055233886193" fill="#82CF76" />
      <rect x="423.225" y="152.15947649405948" width="19.8" height="151.84052350594052" fill="#82CF76" />
      <rect x="447.975" y="227.52578629858277" width="19.8" height="76.47421370141724" fill="#82CF76" />
    </g>
    <g class="highcharts-series highcharts-series-3 highcharts-line-series" data-z-index="10" opacity="1" clip-path="url(#chart-area)">
      <path fill="none" class="highcharts-graph" d="M 12.375,264.886101147813 37.125,249.3785200844843 61.875,252.46803816866776 86.625,254.95764982873797 111.375,271.7550297039103 136.125,257.1473082767515 160.875,167.40130722940225 185.625,177.92966497259061 210.375,187.64814904322603 235.125,139.46544012402967 259.875,83.4070446185269 284.625,28.589814415033345 309.375,28.088818589832783 334.125,12.78882158503967 358.875,0 383.625,0.254097351144992 408.375,75.00944766113807 433.125,134.25647729714257 457.875,179.78937488734184 482.625,150.42395542699595 507.375,161.79218216394293 532.125,175.20009074287512 556.875,164.0118359331621 581.625,220.04309594534408" stroke="#FF0000" stroke-width="2" stroke-linejoin="round" stroke-linecap="round" />
    </g>
  </g>
  <g class="highcharts-axis-labels highcharts-xaxis-labels" data-z-index="7">
    <text x="92.375" y="341" text-anchor="middle" style="cursor: default; font-size: 12px; fill: rgb(194,194,194);">00</text>
    <text x="117.125" y="341" text-anchor="middle" style="cursor: default; font-size: 12px; fill: rgb(194,194,194);">01</text>
    <text x="141.875" y="341" text-anchor="middle" style="cursor: default; font-size: 12px; fill: rgb(194,194,194);">02</text>
    <text x="166.625" y="341" text-anchor="middle" style="cursor: default; font-size: 12px; fill: rgb(194,194,194);">03</text>
    <text x="191.375" y="341" text-anchor="middle" style="cursor: default; font-size: 12px; fill: rgb(194,194,194);">04</text>
    <text x="216.125" y="341" text-anchor="middle" style="cursor: default; font-size: 12px; fill: rgb(194,194,194);">05</text>
    <text x="240.875" y="341" text-anchor="middle" style="cursor: default; font-size: 12px; fill: rgb(194,194,194);">06</text>
    <text x="265.625" y="341" text-anchor="middle" style="cursor: default; font-size: 12px; fill: rgb(194,194,194);">07</text>
    <text x="290.375" y="341" text-anchor="middle" style="cursor: default; font-size: 12px; fill: rgb(194,194,194);">08</text>
    <text x="315.125" y="341" text-anchor="middle" style="cursor: default; font-size: 12px; fill: rgb(194,194,194);">09</text>
    <text x="339.875" y="341" text-anchor="middle" style="cursor: default; font-size: 12px; fill: rgb(194,194,194);">10</text>
    <text x="364.625" y="341" text-anchor="middle" style="cursor: default; font-size: 12px; fill: rgb(194,194,194);">11</text>
    <text x="389.375" y="341" text-anchor="middle" style="cursor: default; font-size: 12px; fill: rgb(194,194,194);">12</text>
    <text x="414.125" y="341" text-anchor="middle" style="cursor: default; font-size: 12px; fill: rgb(194,194,194);">13</text>
    <text x="438.875" y="341" text-anchor="middle" style="cursor: default; font-size: 12px; fill: rgb(194,194,194);">14</text>
    <text x="463.625" y="341" text-anchor="middle" style="cursor: default; font-size: 12px; fill: rgb(194,194,194);">15</text>
    <text x="488.375" y="341" text-anchor="middle" style="cursor: default; font-size: 12px; fill: rgb(194,194,194);">16</text>
    <text x="513.125" y="341" text-anchor="middle" style="cursor: default; font-size: 12px; fill: rgb(194,194,194);">17</text>
    <text x="537.875" y="341" text-anchor="middle" style="cursor: default; font-size: 12px; fill: rgb(194,194,194);">18</text>
    <text x="562.625" y="341" text-anchor="middle" style="cursor: default; font-size: 12px; fill: rgb(194,194,194);">19</text>
    <text x="587.375" y="341" text-anchor="middle" style="cursor: default; font-size: 12px; fill: rgb(194,194,194);">20</text>
    <text x="612.125" y="341" text-anchor="middle" style="cursor: default; font-size: 12px; fill: rgb(194,194,194);">21</text>
    <text x="636.875" y="341" text-anchor="middle" style="cursor: default; font-size: 12px; fill: rgb(194,194,194);">22</text>
    <text x="661.625" y="341" text-anchor="middle" style="cursor: default; font-size: 12px; fill: rgb(194,194,194);">23</text>
  </g>
  <g class="highcharts-legend" data-z-index="7" transform="translate(119,355)">
    <rect fill="none" class="highcharts-legend-box" rx="0" ry="0" stroke="#999999" stroke-width="0" x="0" y="0" width="517" height="30" />
    <g data-z-index="1">
      <g>
        <g class="highcharts-legend-item highcharts-column-series" data-z-index="1" transform="translate(8,3)">
          <text x="21" y="17" text-anchor="start" data-z-index="2" style="font-size: 12px; font-family: OpenSansNormal; fill: rgb(51, 51, 51);">Ikke matchet</text>
          <rect x="2" y="6" rx="6" ry="6" width="12" height="12" fill="#DFDFDF" class="highcharts-point" data-z-index="3" />
        </g>
        <g class="highcharts-legend-item highcharts-column-series" data-z-index="1" transform="translate(128,3)">
          <text x="21" y="17" text-anchor="start" data-z-index="2" style="font-size: 12px; font-family: OpenSansNormal; fill: rgb(51, 51, 51);">Overmatchet</text>
          <rect x="2" y="6" rx="6" ry="6" width="12" height="12" fill="#59ACE8" class="highcharts-point" data-z-index="3" />
        </g>
        <g class="highcharts-legend-item highcharts-column-series" data-z-index="1" transform="translate(248,3)">
          <text x="21" y="17" text-anchor="start" data-z-index="2" style="font-size: 12px; font-family: OpenSansNormal; fill: rgb(51, 51, 51);">Matchet</text>
          <rect x="2" y="6" rx="6" ry="6" width="12" height="12" fill="#82CF76" class="highcharts-point" data-z-index="3" />
        </g>
        <g class="highcharts-legend-item highcharts-line-series" data-z-index="1" transform="translate(368,3)">
          <path fill="none" class="highcharts-graph" stroke-width="2" stroke-linecap="round" d="M 1 13 L 15 13" stroke="#FF0000" />
          <text x="21" y="17" text-anchor="start" data-z-index="2" style="font-size: 12px; font-family: OpenSansNormal; fill: rgb(51, 51, 51);">Årligt forbrug</text>
        </g>
      </g>
    </g>
  </g>
  <g class="highcharts-axis-labels highcharts-yaxis-labels" data-z-index="7">
    <text x="75" y="314" text-anchor="end" style="font-size: 12px; fill: rgb(194,194,194);">0 kWh</text>
    <text x="75" y="254.0093575886703" text-anchor="end" style="font-size: 12px; fill: rgb(194,194,194);">20 kWh</text>
    <text x="75" y="194.01871517734057" text-anchor="end" style="font-size: 12px; fill: rgb(194,194,194);">40 kWh</text>
    <text x="75" y="134.02807276601087" text-anchor="end" style="font-size: 12px; fill: rgb(194,194,194);">60 kWh</text>
    <text x="75" y="74.03743035468113" text-anchor="end" style="font-size: 12px; fill: rgb(194,194,194);">80 kWh</text>
    <text x="75" y="11.047255822784962" text-anchor="end" style="font-size: 12px; fill: rgb(194,194,194);">101 kWh</text>
  </g>
  <g class="highcharts-axis highcharts-yaxis-left">
    <line x1="80" y1="10" x2="80" y2="314" stroke="FFA500" stroke-width="2" />
  </g>
</svg>
