<svg class="highcharts-root" xmlns="http://www.w3.org/2000/svg" viewBox="0 0 754 400" preserveAspectRatio="xMidYMid meet" style="width: 100%; height: auto; display: block;" role="img">
  <defs>
    <filter id="drop-shadow">
      <feDropShadow dx="1" dy="1" flood-color="#000000" flood-opacity="0.75" stdDeviation="2.5" />
    </filter>
    <clipPath id="chart-area">
      <rect x="0" y="0" width="594" height="304" fill="none" />
    </clipPath>
  </defs>
  <rect fill="#F9FAFB" class="highcharts-background" x="0" y="0" width="754" height="400" rx="0" ry="0" />
  <g class="highcharts-grid highcharts-xaxis-grid" data-z-index="1">
    <path fill="none" stroke="#e6e6e6" stroke-width="0" data-z-index="1" class="highcharts-grid-line" d="M 80 10 L 80 314" opacity="1" />
    <path fill="none" stroke="#e6e6e6" stroke-width="0" data-z-index="1" class="highcharts-grid-line" d="M 104.75 10 L 104.75 314" opacity="1" />
    <path fill="none" stroke="#e6e6e6" stroke-width="0" data-z-index="1" class="highcharts-grid-line" d="M 129.5 10 L 129.5 314" opacity="1" />
    <path fill="none" stroke="#e6e6e6" stroke-width="0" data-z-index="1" class="highcharts-grid-line" d="M 154.25 10 L 154.25 314" opacity="1" />
    <path fill="none" stroke="#e6e6e6" stroke-width="0" data-z-index="1" class="highcharts-grid-line" d="M 179 10 L 179 314" opacity="1" />
    <path fill="none" stroke="#e6e6e6" stroke-width="0" data-z-index="1" class="highcharts-grid-line" d="M 203.75 10 L 203.75 314" opacity="1" />
    <path fill="none" stroke="#e6e6e6" stroke-width="0" data-z-index="1" class="highcharts-grid-line" d="M 228.5 10 L 228.5 314" opacity="1" />
    <path fill="none" stroke="#e6e6e6" stroke-width="0" data-z-index="1" class="highcharts-grid-line" d="M 253.25 10 L 253.25 314" opacity="1" />
    <path fill="none" stroke="#e6e6e6" stroke-width="0" data-z-index="1" class="highcharts-grid-line" d="M 278 10 L 278 314" opacity="1" />
    <path fill="none" stroke="#e6e6e6" stroke-width="0" data-z-index="1" class="highcharts-grid-line" d="M 302.75 10 L 302.75 314" opacity="1" />
    <path fill="none" stroke="#e6e6e6" stroke-width="0" data-z-index="1" class="highcharts-grid-line" d="M 327.5 10 L 327.5 314" opacity="1" />
    <path fill="none" stroke="#e6e6e6" stroke-width="0" data-z-index="1" class="highcharts-grid-line" d="M 352.25 10 L 352.25 314" opacity="1" />
    <path fill="none" stroke="#e6e6e6" stroke-width="0" data-z-index="1" class="highcharts-grid-line" d="M 377 10 L 377 314" opacity="1" />
    <path fill="none" stroke="#e6e6e6" stroke-width="0" data-z-index="1" class="highcharts-grid-line" d="M 401.75 10 L 401.75 314" opacity="1" />
    <path fill="none" stroke="#e6e6e6" stroke-width="0" data-z-index="1" class="highcharts-grid-line" d="M 426.5 10 L 426.5 314" opacity="1" />
    <path fill="none" stroke="#e6e6e6" stroke-width="0" data-z-index="1" class="highcharts-grid-line" d="M 451.25 10 L 451.25 314" opacity="1" />
    <path fill="none" stroke="#e6e6e6" stroke-width="0" data-z-index="1" class="highcharts-grid-line" d="M 476 10 L 476 314" opacity="1" />
    <path fill="none" stroke="#e6e6e6" stroke-width="0" data-z-index="1" class="highcharts-grid-line" d="M 500.75 10 L 500.75 314" opacity="1" />
    <path fill="none" stroke="#e6e6e6" stroke-width="0" data-z-index="1" class="highcharts-grid-line" d="M 525.5 10 L 525.5 314" opacity="1" />
    <path fill="none" stroke="#e6e6e6" stroke-width="0" data-z-index="1" class="highcharts-grid-line" d="M 550.25 10 L 550.25 314" opacity="1" />
    <path fill="none" stroke="#e6e6e6" stroke-width="0" data-z-index="1" class="highcharts-grid-line" d="M 575 10 L 575 314" opacity="1" />
    <path fill="none" stroke="#e6e6e6" stroke-width="0" data-z-index="1" class="highcharts-grid-line" d="M 599.75 10 L 599.75 314" opacity="1" />
    <path fill="none" stroke="#e6e6e6" stroke-width="0" data-z-index="1" class="highcharts-grid-line" d="M 624.5 10 L 624.5 314" opacity="1" />
    <path fill="none" stroke="#e6e6e6" stroke-width="0" data-z-index="1" class="highcharts-grid-line" d="M 649.25 10 L 649.25 314" opacity="1" />
    <path fill="none" stroke="#e6e6e6" stroke-width="0" data-z-index="1" class="highcharts-grid-line" d="M 674 10 L 674 314" opacity="1" />
  </g>
  <g class="highcharts-axis highcharts-xaxis" data-z-index="2">
    <path fill="none" class="highcharts-axis-line" stroke="#ffffff" stroke-width="1" d="M 80 314.5 L 674 314.5" />
  </g>
  <g class="highcharts-series-group" data-z-index="3" transform="translate(80,10)">
    <g class="highcharts-series highcharts-series-0 highcharts-column-series" data-z-index="0.1" opacity="1" clip-path="url(#chart-area)">
      <rect x="2.475" y="264.80683530501597" width="19.8" height="39.193164694984006" fill="#DFDFDF" />
      <rect x="27.225" y="249.2527994693916" width="19.8" height="54.74720053060841" fill="#DFDFDF" />
      <rect x="51.975" y="252.37863469046394" width="19.8" height="51.62136530953606" fill="#DFDFDF" />
      <rect x="76.725" y="254.85826359179538" width="19.8" height="49.141736408204636" fill="#DFDFDF" />
      <rect x="101.475" y="271.68968401295416" width="19.8" height="32.31031598704586" fill="#DFDFDF" />
      <rect x="126.225" y="257.06738752207247" width="19.8" height="46.93261247792755" fill="#DFDFDF" />
      <rect x="150.975" y="167.12448464650527" width="19.8" height="136.87551535349473" fill="#DFDFDF" />
      <rect x="175.725" y="177.6892065715719" width="19.8" height="71.08645424362528" fill="#DFDFDF" />
      <rect x="200.475" y="187.427385529528" width="19.8" height="6.133397598940618" fill="#DFDFDF" />
      <rect x="423.225" y="133.9124854226116" width="19.8" height="16.924520244682075" fill="#DFDFDF" />
      <rect x="447.975" y="179.5526852610573" width="19.8" height="47.65463841778971" fill="#DFDFDF" />
      <rect x="472.725" y="150.11272757797693" width="19.8" height="153.88727242202307" fill="#DFDFDF" />
      <rect x="497.475" y="161.51902052410148" width="19.8" height="142.48097947589852" fill="#DFDFDF" />
      <rect x="522.225" y="174.9390726991861" width="19.8" height="129.0609273008139" fill="#DFDFDF" />
      <rect x="546.975" y="163.74317250832604" width="19.8" height="140.25682749167396" fill="#DFDFDF" />
      <rect x="571.725" y="219.87295400210104" width="19.8" height="84.12704599789895" fill="#DFDFDF" />
    </g>
    <g class="highcharts-series highcharts-series-1 highcharts-column-series" data-z-index="0.1" opacity="1" clip-path="url(#chart-area)" />
    <g class="highcharts-series highcharts-series-2 highcharts-column-series" data-z-index="0.1" opacity="1" clip-path="url(#chart-area)">
      <rect x="175.725" y="248.77566081519717" width="19.8" height="55.22433918480284" fill="#82CF76" />
      <rect x="200.475" y="193.56078312846864" width="19.8" height="110.43921687153136" fill="#82CF76" />
      <rect x="225.225" y="137.12163370440365" width="19.8" height="166.87836629559635" fill="#82CF76" />
      <rect x="249.975" y="81.7129188254032" width="19.8" height="222.2870811745968" fill="#82CF76" />
      <rect x="274.725" y="28.02340920071748" width="19.8" height="275.9765907992825" fill="#82CF76" />
      <rect x="299.475" y="30.06500944359334" width="19.8" height="273.93499055640666" fill="#82CF76" />
      <rect x="324.225" y="12.753704145779068" width="19.8" height="291.24629585422093" fill="#82CF76" />
      <rect x="348.975" y="0.6407509302942458" width="19.8" height="303.35924906970575" fill="#82CF76" />
      <rect x="373.725" y="0" width="19.8" height="304" fill="#82CF76" />
      <rect x="398.475" y="74.36231885039396" width="19.8" height="229.63768114960604" fill="#82CF76" />
      <rect x="423.225" y="150.83700566729368" width="19.8" height="153.16299433270632" fill="#82CF76" />
      <rect x="447.975" y="227.20732367884702" width="19.8" height="76.79267632115298" fill="#82CF76" />
    </g>
    <g class="highcharts-series highcharts-series-3 highcharts-line-series" data-z-index="10" opacity="1" clip-path="url(#chart-area)">
      <path fill="none" class="highcharts-graph" d="M 12.375,264.80683530501597 37.125,249.2527994693916 61.875,252.37863469046394 86.625,254.85826359179538 111.375,271.68968401295416 136.125,257.06738752207247 160.875,167.12448464650527 185.625,177.68920657157187 210.375,187.427385529528 235.125,137.12163370440365 259.875,81.7129188254032 284.625,28.02340920071748 309.375,30.06500944359334 334.125,12.753704145779068 358.875,0.6407509302942458 383.625,0 408.375,74.36231885039396 433.125,133.9124854226116 457.875,179.55268526105732 482.625,150.11272757797693 507.375,161.51902052410148 532.125,174.9390726991861 556.875,163.74317250832604 581.625,219.87295400210104" stroke="#FF0000" stroke-width="2" stroke-linejoin="round" stroke-linecap="round" />
    </g>
  </g>
  <g class="highcharts-axis-labels highcharts-xaxis-labels" data-z-index="7">
    <text x="92.375" y="341" text-anchor="middle" style="cursor: default; font-size: 12px; fill: rgb(194,194,194);">00</text>
    <text x="117.125" y="341" text-anchor="middle" style="cursor: default; font-size: 12px; fill: rgb(194,194,194);">01</text>
    <text x="141.875" y="341" text-anchor="middle" style="cursor: default; font-size: 12px; fill: rgb(194,194,194);">02</text>
    <text x="166.625" y="341" text-anchor="middle" style="cursor: default; font-size: 12px; fill: rgb(194,194,194);">03</text>
    <text x="191.375" y="341" text-anchor="middle" style="cursor: default; font-size: 12px; fill: rgb(194,194,194);">04</text>
    <text x="216.125" y="341" text-anchor="middle" style="cursor: default; font-size: 12px; fill: rgb(194,194,194);">05</text>
    <text x="240.875" y="341" text-anchor="middle" style="cursor: default; font-size: 12px; fill: rgb(194,194,194);">06</text>
    <text x="265.625" y="341" text-anchor="middle" style="cursor: default; font-size: 12px; fill: rgb(194,194,194);">07</text>
    <text x="290.375" y="341" text-anchor="middle" style="cursor: default; font-size: 12px; fill: rgb(194,194,194);">08</text>
    <text x="315.125" y="341" text-anchor="middle" style="cursor: default; font-size: 12px; fill: rgb(194,194,194);">09</text>
    <text x="339.875" y="341" text-anchor="middle" style="cursor: default; font-size: 12px; fill: rgb(194,194,194);">10</text>
    <text x="364.625" y="341" text-anchor="middle" style="cursor: default; font-size: 12px; fill: rgb(194,194,194);">11</text>
    <text x="389.375" y="341" text-anchor="middle" style="cursor: default; font-size: 12px; fill: rgb(194,194,194);">12</text>
    <text x="414.125" y="341" text-anchor="middle" style="cursor: default; font-size: 12px; fill: rgb(194,194,194);">13</text>
    <text x="438.875" y="341" text-anchor="middle" style="cursor: default; font-size: 12px; fill: rgb(194,194,194);">14</text>
    <text x="463.625" y="341" text-anchor="middle" style="cursor: default; font-size: 12px; fill: rgb(194,194,194);">15</text>
    <text x="488.375" y="341" text-anchor="middle" style="cursor: default; font-size: 12px; fill: rgb(194,194,194);">16</text>
    <text x="513.125" y="341" text-anchor="middle" style="cursor: default; font-size: 12px; fill: rgb(194,194,194);">17</text>
    <text x="537.875" y="341" text-anchor="middle" style="cursor: default; font-size: 12px; fill: rgb(194,194,194);">18</text>
    <text x="562.625" y="341" text-anchor="middle" style="cursor: default; font-size: 12px; fill: rgb(194,194,194);">19</text>
    <text x="587.375" y="341" text-anchor="middle" style="cursor: default; font-size: 12px; fill: rgb(194,194,194);">20</text>
    <text x="612.125" y="341" text-anchor="middle" style="cursor: default; font-size: 12px; fill: rgb(194,194,194);">21</text>
    <text x="636.875" y="341" text-anchor="middle" style="cursor: default; font-size: 12px; fill: rgb(194,194,194);">22</text>
    <text x="661.625" y="341" text-anchor="middle" style="cursor: default; font-size: 12px; fill: rgb(194,194,194);">23</text>
    <text x="698.75" y="341" text-anchor="middle" style="cursor: default; font-size: 12px; fill: rgb(194,194,194); font-style: italic;"> (UTC)</text>
  </g>
  <g class="highcharts-legend" data-z-index="7" transform="translate(119,355)">
    <rect fill="none" class="highcharts-legend-box" rx="0" ry="0" stroke="#999999" stroke-width="0" x="0" y="0" width="517" height="30" />
    <g data-z-index="1">
      <g>
        <g class="highcharts-legend-item highcharts-column-series" data-z-index="1" transform="translate(8,3)">
          <text x="21" y="17" text-anchor="start" data-z-index="2" style="font-size: 12px; font-family: OpenSansNormal; fill: rgb(51, 51, 51);">Ikke matchet</text>
          <rect x="2" y="6" rx="6" ry="6" width="12" height="12" fill="#DFDFDF" class="highcharts-point" data-z-index="3" />
        </g>
        <g class="highcharts-legend-item highcharts-column-series" data-z-index="1" transform="translate(128,3)">
          <text x="21" y="17" text-anchor="start" data-z-index="2" style="font-size: 12px; font-family: OpenSansNormal; fill: rgb(51, 51, 51);">Overmatchet</text>
          <rect x="2" y="6" rx="6" ry="6" width="12" height="12" fill="#59ACE8" class="highcharts-point" data-z-index="3" />
        </g>
        <g class="highcharts-legend-item highcharts-column-series" data-z-index="1" transform="translate(248,3)">
          <text x="21" y="17" text-anchor="start" data-z-index="2" style="font-size: 12px; font-family: OpenSansNormal; fill: rgb(51, 51, 51);">Matchet</text>
          <rect x="2" y="6" rx="6" ry="6" width="12" height="12" fill="#82CF76" class="highcharts-point" data-z-index="3" />
        </g>
        <g class="highcharts-legend-item highcharts-line-series" data-z-index="1" transform="translate(368,3)">
          <path fill="none" class="highcharts-graph" stroke-width="2" stroke-linecap="round" d="M 1 13 L 15 13" stroke="#FF0000" />
          <text x="21" y="17" text-anchor="start" data-z-index="2" style="font-size: 12px; font-family: OpenSansNormal; fill: rgb(51, 51, 51);">Årligt forbrug</text>
        </g>
      </g>
    </g>
  </g>
  <g class="highcharts-axis-labels highcharts-yaxis-labels" data-z-index="7">
    <text x="75" y="314" text-anchor="end" style="font-size: 12px; fill: rgb(194,194,194);">0 kWh</text>
    <text x="75" y="253.88778421014723" text-anchor="end" style="font-size: 12px; fill: rgb(194,194,194);">40 kWh</text>
    <text x="75" y="193.77556842029446" text-anchor="end" style="font-size: 12px; fill: rgb(194,194,194);">80 kWh</text>
    <text x="75" y="133.66335263044172" text-anchor="end" style="font-size: 12px; fill: rgb(194,194,194);">120 kWh</text>
    <text x="75" y="73.55113684058895" text-anchor="end" style="font-size: 12px; fill: rgb(194,194,194);">160 kWh</text>
    <text x="75" y="10.433310261243548" text-anchor="end" style="font-size: 12px; fill: rgb(194,194,194);">202 kWh</text>
  </g>
  <g class="highcharts-axis highcharts-yaxis-left">
    <line x1="80" y1="10" x2="80" y2="314" stroke="FFA500" stroke-width="2" />
  </g>
</svg>
