<svg class="highcharts-root" xmlns="http://www.w3.org/2000/svg" viewBox="0 0 754 400" preserveAspectRatio="xMidYMid meet" style="width: 100%; height: auto; display: block;" role="img">
  <defs>
    <filter id="drop-shadow">
      <feDropShadow dx="1" dy="1" flood-color="#000000" flood-opacity="0.75" stdDeviation="2.5" />
    </filter>
    <clipPath id="chart-area">
      <rect x="0" y="0" width="594" height="304" fill="none" />
    </clipPath>
  </defs>
  <rect fill="#F9FAFB" class="highcharts-background" x="0" y="0" width="754" height="400" rx="0" ry="0" />
  <g class="highcharts-grid highcharts-xaxis-grid" data-z-index="1">
    <path fill="none" stroke="#e6e6e6" stroke-width="0" data-z-index="1" class="highcharts-grid-line" d="M 80 10 L 80 314" opacity="1" />
    <path fill="none" stroke="#e6e6e6" stroke-width="0" data-z-index="1" class="highcharts-grid-line" d="M 104.75 10 L 104.75 314" opacity="1" />
    <path fill="none" stroke="#e6e6e6" stroke-width="0" data-z-index="1" class="highcharts-grid-line" d="M 129.5 10 L 129.5 314" opacity="1" />
    <path fill="none" stroke="#e6e6e6" stroke-width="0" data-z-index="1" class="highcharts-grid-line" d="M 154.25 10 L 154.25 314" opacity="1" />
    <path fill="none" stroke="#e6e6e6" stroke-width="0" data-z-index="1" class="highcharts-grid-line" d="M 179 10 L 179 314" opacity="1" />
    <path fill="none" stroke="#e6e6e6" stroke-width="0" data-z-index="1" class="highcharts-grid-line" d="M 203.75 10 L 203.75 314" opacity="1" />
    <path fill="none" stroke="#e6e6e6" stroke-width="0" data-z-index="1" class="highcharts-grid-line" d="M 228.5 10 L 228.5 314" opacity="1" />
    <path fill="none" stroke="#e6e6e6" stroke-width="0" data-z-index="1" class="highcharts-grid-line" d="M 253.25 10 L 253.25 314" opacity="1" />
    <path fill="none" stroke="#e6e6e6" stroke-width="0" data-z-index="1" class="highcharts-grid-line" d="M 278 10 L 278 314" opacity="1" />
    <path fill="none" stroke="#e6e6e6" stroke-width="0" data-z-index="1" class="highcharts-grid-line" d="M 302.75 10 L 302.75 314" opacity="1" />
    <path fill="none" stroke="#e6e6e6" stroke-width="0" data-z-index="1" class="highcharts-grid-line" d="M 327.5 10 L 327.5 314" opacity="1" />
    <path fill="none" stroke="#e6e6e6" stroke-width="0" data-z-index="1" class="highcharts-grid-line" d="M 352.25 10 L 352.25 314" opacity="1" />
    <path fill="none" stroke="#e6e6e6" stroke-width="0" data-z-index="1" class="highcharts-grid-line" d="M 377 10 L 377 314" opacity="1" />
    <path fill="none" stroke="#e6e6e6" stroke-width="0" data-z-index="1" class="highcharts-grid-line" d="M 401.75 10 L 401.75 314" opacity="1" />
    <path fill="none" stroke="#e6e6e6" stroke-width="0" data-z-index="1" class="highcharts-grid-line" d="M 426.5 10 L 426.5 314" opacity="1" />
    <path fill="none" stroke="#e6e6e6" stroke-width="0" data-z-index="1" class="highcharts-grid-line" d="M 451.25 10 L 451.25 314" opacity="1" />
    <path fill="none" stroke="#e6e6e6" stroke-width="0" data-z-index="1" class="highcharts-grid-line" d="M 476 10 L 476 314" opacity="1" />
    <path fill="none" stroke="#e6e6e6" stroke-width="0" data-z-index="1" class="highcharts-grid-line" d="M 500.75 10 L 500.75 314" opacity="1" />
    <path fill="none" stroke="#e6e6e6" stroke-width="0" data-z-index="1" class="highcharts-grid-line" d="M 525.5 10 L 525.5 314" opacity="1" />
    <path fill="none" stroke="#e6e6e6" stroke-width="0" data-z-index="1" class="highcharts-grid-line" d="M 550.25 10 L 550.25 314" opacity="1" />
    <path fill="none" stroke="#e6e6e6" stroke-width="0" data-z-index="1" class="highcharts-grid-line" d="M 575 10 L 575 314" opacity="1" />
    <path fill="none" stroke="#e6e6e6" stroke-width="0" data-z-index="1" class="highcharts-grid-line" d="M 599.75 10 L 599.75 314" opacity="1" />
    <path fill="none" stroke="#e6e6e6" stroke-width="0" data-z-index="1" class="highcharts-grid-line" d="M 624.5 10 L 624.5 314" opacity="1" />
    <path fill="none" stroke="#e6e6e6" stroke-width="0" data-z-index="1" class="highcharts-grid-line" d="M 649.25 10 L 649.25 314" opacity="1" />
    <path fill="none" stroke="#e6e6e6" stroke-width="0" data-z-index="1" class="highcharts-grid-line" d="M 674 10 L 674 314" opacity="1" />
  </g>
  <g class="highcharts-axis highcharts-xaxis" data-z-index="2">
    <path fill="none" class="highcharts-axis-line" stroke="#ffffff" stroke-width="1" d="M 80 314.5 L 674 314.5" />
  </g>
  <g class="highcharts-series-group" data-z-index="3" transform="translate(80,10)">
    <g class="highcharts-series highcharts-series-0 highcharts-column-series" data-z-index="0.1" opacity="1" clip-path="url(#chart-area)">
      <rect x="2.475" y="264.81222577519054" width="19.8" height="39.187774224809466" fill="#DFDFDF" />
      <rect x="27.225" y="249.2541697215562" width="19.8" height="54.745830278443805" fill="#DFDFDF" />
      <rect x="51.975" y="252.37437794122056" width="19.8" height="51.62562205877944" fill="#DFDFDF" />
      <rect x="76.725" y="254.8552476406701" width="19.8" height="49.14475235932993" fill="#DFDFDF" />
      <rect x="101.475" y="271.68868989137195" width="19.8" height="32.31131010862803" fill="#DFDFDF" />
      <rect x="126.225" y="257.0610441321361" width="19.8" height="46.93895586786392" fill="#DFDFDF" />
      <rect x="150.975" y="167.12146339159247" width="19.8" height="136.87853660840753" fill="#DFDFDF" />
      <rect x="175.725" y="177.68357078431342" width="19.8" height="71.0920686900254" fill="#DFDFDF" />
      <rect x="200.475" y="187.42106779041103" width="19.8" height="6.139702630416976" fill="#DFDFDF" />
      <rect x="423.225" y="133.91249182424946" width="19.8" height="16.9245040878418" fill="#DFDFDF" />
      <rect x="447.975" y="179.55118645820778" width="19.8" height="47.65608988695208" fill="#DFDFDF" />
      <rect x="472.725" y="150.1122094347546" width="19.8" height="153.8877905652454" fill="#DFDFDF" />
      <rect x="497.475" y="161.5176690013573" width="19.8" height="142.4823309986427" fill="#DFDFDF" />
      <rect x="522.225" y="174.9442831690597" width="19.8" height="129.0557168309403" fill="#DFDFDF" />
      <rect x="546.975" y="163.7406762218948" width="19.8" height="140.2593237781052" fill="#DFDFDF" />
      <rect x="571.725" y="219.87073969350035" width="19.8" height="84.12926030649965" fill="#DFDFDF" />
    </g>
    <g class="highcharts-series highcharts-series-1 highcharts-column-series" data-z-index="0.1" opacity="1" clip-path="url(#chart-area)">
      <rect x="225.225" y="137.12162053151735" width="19.8" height="15.3399006095945" fill="#59ACE8" />
      <rect x="249.975" y="81.71291831425864" width="19.8" height="149.9526788757669" fill="#59ACE8" />
      <rect x="274.725" y="28.023434171681572" width="19.8" height="198.22871186177" fill="#59ACE8" />
      <rect x="299.475" y="30.064998085312624" width="19.8" height="198.05893631163022" fill="#59ACE8" />
      <rect x="324.225" y="12.75369139196438" width="19.8" height="205.85388261778127" fill="#59ACE8" />
      <rect x="348.975" y="0.6407521866513832" width="19.8" height="190.28195117383055" fill="#59ACE8" />
      <rect x="373.725" y="0" width="19.8" height="236.70437640722676" fill="#59ACE8" />
      <rect x="398.475" y="74.36234625849977" width="19.8" height="119.63310041392926" fill="#59ACE8" />
    </g>
    <g class="highcharts-series highcharts-series-2 highcharts-column-series" data-z-index="0.1" opacity="1" clip-path="url(#chart-area)">
      <rect x="175.725" y="248.77563947433882" width="19.8" height="55.224360525661176" fill="#82CF76" />
      <rect x="200.475" y="193.56077042082802" width="19.8" height="110.43922957917196" fill="#82CF76" />
      <rect x="225.225" y="152.46152114111186" width="19.8" height="151.53847885888814" fill="#82CF76" />
      <rect x="249.975" y="231.66559719002555" width="19.8" height="72.33440280997445" fill="#82CF76" />
      <rect x="274.725" y="226.25214603345157" width="19.8" height="77.74785396654843" fill="#82CF76" />
      <rect x="299.475" y="228.12393439694284" width="19.8" height="75.87606560305716" fill="#82CF76" />
      <rect x="324.225" y="218.60757400974563" width="19.8" height="85.39242599025435" fill="#82CF76" />
      <rect x="348.975" y="190.92270336048193" width="19.8" height="113.07729663951807" fill="#82CF76" />
      <rect x="373.725" y="236.70437640722676" width="19.8" height="67.29562359277324" fill="#82CF76" />
      <rect x="398.475" y="193.995446672429" width="19.8" height="110.00455332757099" fill="#82CF76" />
      <rect x="423.225" y="150.83699591209125" width="19.8" height="153.16300408790875" fill="#82CF76" />
      <rect x="447.975" y="227.20727634515987" width="19.8" height="76.79272365484013" fill="#82CF76" />
    </g>
    <g class="highcharts-series highcharts-series-3 highcharts-line-series" data-z-index="10" opacity="1" clip-path="url(#chart-area)">
      <path fill="none" class="highcharts-graph" d="M 12.375,264.81222577519054 37.125,249.2541697215562 61.875,252.37437794122056 86.625,254.8552476406701 111.375,271.68868989137195 136.125,257.0610441321361 160.875,167.12146339159247 185.625,177.68357078431342 210.375,187.42106779041106 235.125,152.46152114111186 259.875,231.66559719002555 284.625,226.25214603345157 309.375,228.12393439694284 334.125,218.60757400974563 358.875,190.92270336048193 383.625,236.70437640722676 408.375,193.995446672429 433.125,133.91249182424946 457.875,179.55118645820778 482.625,150.1122094347546 507.375,161.5176690013573 532.125,174.9442831690597 556.875,163.7406762218948 581.625,219.87073969350035" stroke="#FF0000" stroke-width="2" stroke-linejoin="round" stroke-linecap="round" />
    </g>
  </g>
  <g class="highcharts-axis-labels highcharts-xaxis-labels" data-z-index="7">
    <text x="92.375" y="341" text-anchor="middle" style="cursor: default; font-size: 12px; fill: rgb(194,194,194);">00</text>
    <text x="117.125" y="341" text-anchor="middle" style="cursor: default; font-size: 12px; fill: rgb(194,194,194);">01</text>
    <text x="141.875" y="341" text-anchor="middle" style="cursor: default; font-size: 12px; fill: rgb(194,194,194);">02</text>
    <text x="166.625" y="341" text-anchor="middle" style="cursor: default; font-size: 12px; fill: rgb(194,194,194);">03</text>
    <text x="191.375" y="341" text-anchor="middle" style="cursor: default; font-size: 12px; fill: rgb(194,194,194);">04</text>
    <text x="216.125" y="341" text-anchor="middle" style="cursor: default; font-size: 12px; fill: rgb(194,194,194);">05</text>
    <text x="240.875" y="341" text-anchor="middle" style="cursor: default; font-size: 12px; fill: rgb(194,194,194);">06</text>
    <text x="265.625" y="341" text-anchor="middle" style="cursor: default; font-size: 12px; fill: rgb(194,194,194);">07</text>
    <text x="290.375" y="341" text-anchor="middle" style="cursor: default; font-size: 12px; fill: rgb(194,194,194);">08</text>
    <text x="315.125" y="341" text-anchor="middle" style="cursor: default; font-size: 12px; fill: rgb(194,194,194);">09</text>
    <text x="339.875" y="341" text-anchor="middle" style="cursor: default; font-size: 12px; fill: rgb(194,194,194);">10</text>
    <text x="364.625" y="341" text-anchor="middle" style="cursor: default; font-size: 12px; fill: rgb(194,194,194);">11</text>
    <text x="389.375" y="341" text-anchor="middle" style="cursor: default; font-size: 12px; fill: rgb(194,194,194);">12</text>
    <text x="414.125" y="341" text-anchor="middle" style="cursor: default; font-size: 12px; fill: rgb(194,194,194);">13</text>
    <text x="438.875" y="341" text-anchor="middle" style="cursor: default; font-size: 12px; fill: rgb(194,194,194);">14</text>
    <text x="463.625" y="341" text-anchor="middle" style="cursor: default; font-size: 12px; fill: rgb(194,194,194);">15</text>
    <text x="488.375" y="341" text-anchor="middle" style="cursor: default; font-size: 12px; fill: rgb(194,194,194);">16</text>
    <text x="513.125" y="341" text-anchor="middle" style="cursor: default; font-size: 12px; fill: rgb(194,194,194);">17</text>
    <text x="537.875" y="341" text-anchor="middle" style="cursor: default; font-size: 12px; fill: rgb(194,194,194);">18</text>
    <text x="562.625" y="341" text-anchor="middle" style="cursor: default; font-size: 12px; fill: rgb(194,194,194);">19</text>
    <text x="587.375" y="341" text-anchor="middle" style="cursor: default; font-size: 12px; fill: rgb(194,194,194);">20</text>
    <text x="612.125" y="341" text-anchor="middle" style="cursor: default; font-size: 12px; fill: rgb(194,194,194);">21</text>
    <text x="636.875" y="341" text-anchor="middle" style="cursor: default; font-size: 12px; fill: rgb(194,194,194);">22</text>
    <text x="661.625" y="341" text-anchor="middle" style="cursor: default; font-size: 12px; fill: rgb(194,194,194);">23</text>
  </g>
  <g class="highcharts-legend" data-z-index="7" transform="translate(119,355)">
    <rect fill="none" class="highcharts-legend-box" rx="0" ry="0" stroke="#999999" stroke-width="0" x="0" y="0" width="517" height="30" />
    <g data-z-index="1">
      <g>
        <g class="highcharts-legend-item highcharts-column-series" data-z-index="1" transform="translate(8,3)">
          <text x="21" y="17" text-anchor="start" data-z-index="2" style="font-size: 12px; font-family: OpenSansNormal; fill: rgb(51, 51, 51);">Ikke matchet</text>
          <rect x="2" y="6" rx="6" ry="6" width="12" height="12" fill="#DFDFDF" class="highcharts-point" data-z-index="3" />
        </g>
        <g class="highcharts-legend-item highcharts-column-series" data-z-index="1" transform="translate(128,3)">
          <text x="21" y="17" text-anchor="start" data-z-index="2" style="font-size: 12px; font-family: OpenSansNormal; fill: rgb(51, 51, 51);">Overmatchet</text>
          <rect x="2" y="6" rx="6" ry="6" width="12" height="12" fill="#59ACE8" class="highcharts-point" data-z-index="3" />
        </g>
        <g class="highcharts-legend-item highcharts-column-series" data-z-index="1" transform="translate(248,3)">
          <text x="21" y="17" text-anchor="start" data-z-index="2" style="font-size: 12px; font-family: OpenSansNormal; fill: rgb(51, 51, 51);">Matchet</text>
          <rect x="2" y="6" rx="6" ry="6" width="12" height="12" fill="#82CF76" class="highcharts-point" data-z-index="3" />
        </g>
        <g class="highcharts-legend-item highcharts-line-series" data-z-index="1" transform="translate(368,3)">
          <path fill="none" class="highcharts-graph" stroke-width="2" stroke-linecap="round" d="M 1 13 L 15 13" stroke="#FF0000" />
          <text x="21" y="17" text-anchor="start" data-z-index="2" style="font-size: 12px; font-family: OpenSansNormal; fill: rgb(51, 51, 51);">Årligt forbrug</text>
        </g>
      </g>
    </g>
  </g>
  <g class="highcharts-axis-labels highcharts-yaxis-labels" data-z-index="7">
    <text x="75" y="314" text-anchor="end" style="font-size: 12px; fill: rgb(194,194,194);">0.00 MWh</text>
    <text x="75" y="253.2" text-anchor="end" style="font-size: 12px; fill: rgb(194,194,194);">2.02 MWh</text>
    <text x="75" y="192.39999999999998" text-anchor="end" style="font-size: 12px; fill: rgb(194,194,194);">4.05 MWh</text>
    <text x="75" y="131.6" text-anchor="end" style="font-size: 12px; fill: rgb(194,194,194);">6.07 MWh</text>
    <text x="75" y="70.79999999999998" text-anchor="end" style="font-size: 12px; fill: rgb(194,194,194);">8.09 MWh</text>
    <text x="75" y="10" text-anchor="end" style="font-size: 12px; fill: rgb(194,194,194);">10.11 MWh</text>
  </g>
  <g class="highcharts-axis highcharts-yaxis-left">
    <line x1="80" y1="10" x2="80" y2="314" stroke="FFA500" stroke-width="2" />
  </g>
</svg>