<svg xmlns="http://www.w3.org/2000/svg" xmlns:xlink="http://www.w3.org/1999/xlink" version="1.1" viewBox="0 0 3915 2085" style="background: #ffffff"><defs><style>@import url(https://fonts.googleapis.com/css?family=Open+Sans:400,700);</style></defs><defs joint-selector="defs"></defs><g  joint-selector="layers" transform="matrix(1,0,0,1,0,0)"><g ></g><g ><!--z-index:1--><!--z-index:2--><!--z-index:3--><!--z-index:4--><!--z-index:5--><!--z-index:6--><!--z-index:7--><!--z-index:8--><!--z-index:9--><!--z-index:10--><!--z-index:11--><!--z-index:12--><!--z-index:13--><!--z-index:14--><!--z-index:15--><!--z-index:16--><!--z-index:17--><!--z-index:18--><!--z-index:19--><!--z-index:20--><!--z-index:21--><!--z-index:22--><!--z-index:23--><!--z-index:24--><!--z-index:25--><!--z-index:26--><!--z-index:27--><!--z-index:28--><!--z-index:29--><!--z-index:30--><!--z-index:31--><!--z-index:32--><!--z-index:33--><!--z-index:34--><!--z-index:35--><!--z-index:36--><!--z-index:37--><g   id="j_2"  transform="translate(20,2048.6)"><g id="v-5"><text  id="v-6" font-size="22px" xml:space="preserve" y="0.8em" font-weight="normal" text-anchor="start" fill="#aaaaaa" pointer-events="none" display="block" font-family="Open Sans"><tspan  dy="0" display="block">Monday, March 10, 2025 at 8:36 AM Central European Standard Time</tspan></text></g></g><!--z-index:38--><g   id="j_1"  transform="translate(20,2005.3999999999999)"><g id="v-3"><text  id="v-4" font-size="36px" xml:space="preserve" y="0.8em" font-weight="normal" text-anchor="start" fill="#000000" pointer-events="none" display="block" font-family="Open Sans"><tspan  dy="0" display="block">[Container Context] Authorization</tspan></text></g></g><!--z-index:39--><g   id="j_3"  transform="translate(2515,1385)" style=""><g  id="v-10" style="opacity: 1;"><rect  id="v-11" rx="20" ry="20" stroke="#8a8a8a" stroke-width="2" pointer-events="visiblePainted" fill="#999999" width="450" height="300" style="fill: rgb(153, 153, 153); stroke: rgb(138, 138, 138);"></rect><text  id="v-12" font-size="34" xml:space="preserve" y="0.8em" font-weight="bold" text-anchor="middle" pointer-events="visible" font-family="Open Sans" fill="#ffffff" transform="matrix(1,0,0,1,225,88.0999984741211)" style="fill: rgb(255, 255, 255);"><tspan  dy="0">MitID</tspan></text><text  id="v-13" font-size="17" xml:space="preserve" y="0.8em" text-anchor="middle" font-family="Open Sans" fill="#ffffff" transform="matrix(1,0,0,1,225,128.89999389648438)" style="fill: rgb(255, 255, 255);"><tspan  dy="0">[Software System]</tspan></text><text  id="v-14" font-size="24" xml:space="preserve" y="0.8em" text-anchor="middle" font-family="Open Sans" fill="#ffffff" transform="matrix(1,0,0,1,225,159.3000030517578)" style="fill: rgb(255, 255, 255);"><tspan  dy="0">MitID is a common login solution</tspan><tspan dy="1.2em" x="0" >for the public sector in Denmark.</tspan></text><g  id="v-15" color="#ffffff" transform="matrix(1,0,0,1,222.5,268)" style="fill: rgb(255, 255, 255);" display="none"><g ></g><g ></g><g ></g><g ></g></g><image  id="v-16"></image></g></g><!--z-index:40--><g   id="j_4"  transform="translate(2515,185)" style=""><g  id="v-17" style="opacity: 1;"><rect  id="v-18" rx="20" ry="20" stroke="#8a8a8a" stroke-width="2" pointer-events="visiblePainted" fill="#999999" width="450" height="300" style="fill: rgb(153, 153, 153); stroke: rgb(138, 138, 138);"></rect><text  id="v-19" font-size="34" xml:space="preserve" y="0.8em" font-weight="bold" text-anchor="middle" pointer-events="visible" font-family="Open Sans" fill="#ffffff" transform="matrix(1,0,0,1,225,102.5)" style="fill: rgb(255, 255, 255);"><tspan  dy="0">Azure AD B2C</tspan></text><text  id="v-20" font-size="17" xml:space="preserve" y="0.8em" text-anchor="middle" font-family="Open Sans" fill="#ffffff" transform="matrix(1,0,0,1,225,143.3000030517578)" style="fill: rgb(255, 255, 255);"><tspan  dy="0">[Software System]</tspan></text><text  id="v-21" font-size="24" xml:space="preserve" y="0.8em" text-anchor="middle" font-family="Open Sans" fill="#ffffff" transform="matrix(1,0,0,1,225,173.6999969482422)" style="fill: rgb(255, 255, 255);"><tspan  dy="0">Identity provider.</tspan></text><g  id="v-22" color="#ffffff" transform="matrix(1,0,0,1,222.5,268)" style="fill: rgb(255, 255, 255);" display="none"><g ></g><g ></g><g ></g><g ></g></g><image  id="v-23"></image></g></g><!--z-index:41--><g   id="j_5"  transform="translate(3265,1385)" style=""><g  id="v-30" style="opacity: 1;"><rect  id="v-31" rx="20" ry="20" stroke="#8a8a8a" stroke-width="2" pointer-events="visiblePainted" fill="#999999" width="450" height="300" style="fill: rgb(153, 153, 153); stroke: rgb(138, 138, 138);"></rect><text  id="v-32" font-size="34" xml:space="preserve" y="0.8em" font-weight="bold" text-anchor="middle" pointer-events="visible" font-family="Open Sans" fill="#ffffff" transform="matrix(1,0,0,1,225,73.69999694824219)" style="fill: rgb(255, 255, 255);"><tspan  dy="0">Project Origin Vault</tspan></text><text  id="v-33" font-size="17" xml:space="preserve" y="0.8em" text-anchor="middle" font-family="Open Sans" fill="#ffffff" transform="matrix(1,0,0,1,225,114.5)" style="fill: rgb(255, 255, 255);"><tspan  dy="0">[Software System]</tspan></text><text  id="v-34" font-size="24" xml:space="preserve" y="0.8em" text-anchor="middle" font-family="Open Sans" fill="#ffffff" transform="matrix(1,0,0,1,225,144.89999389648438)" style="fill: rgb(255, 255, 255);"><tspan  dy="0">System with wallets to hold</tspan><tspan dy="1.2em" x="0" >granular certificates in the</tspan><tspan dy="1.2em" x="0" >registries.</tspan></text><g  id="v-35" color="#ffffff" transform="matrix(1,0,0,1,222.5,268)" style="fill: rgb(255, 255, 255);" display="none"><g ></g><g ></g><g ></g><g ></g></g><image  id="v-36"></image></g></g><!--z-index:42--><g   id="j_7"  transform="translate(200,165)" style=""><g id="v-47"><rect  id="v-48" width="2042" height="1685" rx="0" ry="0" fill="#ffffff" stroke="#0f5eaa" stroke-width="1" stroke-dasharray="20,20" pointer-events="none"></rect><text  id="v-49" font-size="24px" xml:space="preserve" y="1646" font-weight="normal" fill="#0f5eaa" text-anchor="start" pointer-events="visible" font-family="Open Sans" transform="matrix(1,0,0,1,15,0)"><tspan  dy="0">Energy Track and Trace DK</tspan></text><text  id="v-50" font-size="17px" xml:space="preserve" y="1670" font-weight="normal" fill="#0f5eaa" text-anchor="start" pointer-events="visible" font-family="Open Sans" transform="matrix(1,0,0,1,15,0)"><tspan  dy="0">[Software System]</tspan></text><image  id="v-51" pointer-events="visible"></image></g></g><!--z-index:43--><g   id="j_6"  transform="translate(1002,185)" style=""><g  id="v-40" style="opacity: 1;"><rect  id="v-41" rx="20" ry="20" stroke="#3c7fc0" stroke-width="2" pointer-events="visiblePainted" fill="#438dd5" width="450" height="300" style="fill: rgb(67, 141, 213); stroke: rgb(60, 127, 192);"></rect><text  id="v-42" font-size="34" xml:space="preserve" y="0.8em" font-weight="bold" text-anchor="middle" pointer-events="visible" font-family="Open Sans" fill="#ffffff" transform="matrix(1,0,0,1,225,88.0999984741211)" style="fill: rgb(255, 255, 255);"><tspan  dy="0">API Gateway</tspan></text><text  id="v-43" font-size="17" xml:space="preserve" y="0.8em" text-anchor="middle" font-family="Open Sans" fill="#ffffff" transform="matrix(1,0,0,1,225,128.89999389648438)" style="fill: rgb(255, 255, 255);"><tspan  dy="0">[Container: Traefik]</tspan></text><text  id="v-44" font-size="24" xml:space="preserve" y="0.8em" text-anchor="middle" font-family="Open Sans" fill="#ffffff" transform="matrix(1,0,0,1,225,159.3000030517578)" style="fill: rgb(255, 255, 255);"><tspan  dy="0">Routes requests to services and</tspan><tspan dy="1.2em" x="0" >forwards authentication requests</tspan></text><g  id="v-45" color="#ffffff" transform="matrix(1,0,0,1,222.5,268)" style="fill: rgb(255, 255, 255);" display="none"><g ></g><g ></g><g ></g><g ></g></g><image  id="v-46"></image></g></g><!--z-index:44--><g   id="j_9"  transform="translate(982,765)" style=""><g id="v-65"><rect  id="v-66" width="1240" height="994" rx="0" ry="0" fill="#ffffff" stroke="#444444" stroke-width="1" stroke-dasharray="5,5" pointer-events="none"></rect><text  id="v-67" font-size="24px" xml:space="preserve" y="979" font-weight="normal" fill="#444444" text-anchor="start" pointer-events="visible" font-family="Open Sans" transform="matrix(1,0,0,1,15,0)"><tspan  dy="0">Authorization Subsystem</tspan></text><text  id="v-68" font-size="17px" xml:space="preserve" display="none" y="979" font-weight="normal" fill="#444444" text-anchor="start" pointer-events="visible" font-family="Open Sans" transform="matrix(1,0,0,1,15,0)"><tspan style="fill-opacity: 0; stroke-opacity: 0;"  dy="0">-</tspan></text><image  id="v-69" pointer-events="visible"></image></g></g><!--z-index:45--><g   id="j_13"  transform="translate(220,1365)" style=""><g id="v-104"><rect  id="v-105" width="490" height="394" rx="0" ry="0" fill="#ffffff" stroke="#444444" stroke-width="1" stroke-dasharray="5,5" pointer-events="none"></rect><text  id="v-106" font-size="24px" xml:space="preserve" y="379" font-weight="normal" fill="#444444" text-anchor="start" pointer-events="visible" font-family="Open Sans" transform="matrix(1,0,0,1,15,0)"><tspan  dy="0">Measurements Subsystem</tspan></text><text  id="v-107" font-size="17px" xml:space="preserve" display="none" y="379" font-weight="normal" fill="#444444" text-anchor="start" pointer-events="visible" font-family="Open Sans" transform="matrix(1,0,0,1,15,0)"><tspan style="fill-opacity: 0; stroke-opacity: 0;"  dy="0">-</tspan></text><image  id="v-108" pointer-events="visible"></image></g></g><!--z-index:46--><g   id="j_8"  transform="translate(1002,785)" style=""><g  id="v-58" style="opacity: 1;"><rect  id="v-59" rx="20" ry="20" stroke="#3c7fc0" stroke-width="2" pointer-events="visiblePainted" fill="#438dd5" width="450" height="300" style="fill: rgb(67, 141, 213); stroke: rgb(60, 127, 192);"></rect><text  id="v-60" font-size="34" xml:space="preserve" y="0.8em" font-weight="bold" text-anchor="middle" pointer-events="visible" font-family="Open Sans" fill="#ffffff" transform="matrix(1,0,0,1,225,88.0999984741211)" style="fill: rgb(255, 255, 255);"><tspan  dy="0">Authorization Web Api</tspan></text><text  id="v-61" font-size="17" xml:space="preserve" y="0.8em" text-anchor="middle" font-family="Open Sans" fill="#ffffff" transform="matrix(1,0,0,1,225,128.89999389648438)" style="fill: rgb(255, 255, 255);"><tspan  dy="0">[Container]</tspan></text><text  id="v-62" font-size="24" xml:space="preserve" y="0.8em" text-anchor="middle" font-family="Open Sans" fill="#ffffff" transform="matrix(1,0,0,1,225,159.3000030517578)" style="fill: rgb(255, 255, 255);"><tspan  dy="0">API For authentication and</tspan><tspan dy="1.2em" x="0" >authorization</tspan></text><g  id="v-63" color="#ffffff" transform="matrix(1,0,0,1,222.5,268)" style="fill: rgb(255, 255, 255);" display="none"><g ></g><g ></g><g ></g><g ></g></g><image  id="v-64"></image></g></g><!--z-index:47--><g   id="j_10"  transform="translate(1002,1385)" style=""><g  id="v-73" style="opacity: 1;"><path  d="M 0,30 a 225,30 0,0,0 450 0 a 225,30 0,0,0 -450 0 l 0,240 a 225,30 0,0,0 450 0 l 0,-240" id="v-74" stroke="#3c7fc0" stroke-width="2" pointer-events="visiblePainted" fill="#438dd5" style="fill: rgb(67, 141, 213); stroke: rgb(60, 127, 192);"></path><rect  id="v-75" stroke-width="0" pointer-events="visiblePainted" fill="none" stroke="none" width="450" height="270" x="0" y="30"></rect><text  id="v-76" font-size="34" xml:space="preserve" y="0.8em" font-weight="bold" text-anchor="middle" pointer-events="visible" font-family="Open Sans" fill="#ffffff" transform="matrix(1,0,0,1,225,110.5999984741211)" style="fill: rgb(255, 255, 255);"><tspan  dy="0">Database</tspan></text><text  id="v-77" font-size="17" xml:space="preserve" y="0.8em" text-anchor="middle" font-family="Open Sans" fill="#ffffff" transform="matrix(1,0,0,1,225,151.39999389648438)" style="fill: rgb(255, 255, 255);"><tspan  dy="0">[Container: PostgreSQL]</tspan></text><text  id="v-78" font-size="24" xml:space="preserve" y="0.8em" text-anchor="middle" font-family="Open Sans" fill="#ffffff" transform="matrix(1,0,0,1,225,181.8000030517578)" style="fill: rgb(255, 255, 255);"><tspan  dy="0">Stores user, organization, client and</tspan><tspan dy="1.2em" x="0" >consent information</tspan></text><g  id="v-79" font-weight="normal" text-anchor="middle" color="#ffffff" transform="matrix(1,0,0,1,222.5,268)" style="fill: rgb(255, 255, 255);" display="none"><g ></g><g ></g><g ></g><g ></g></g><image  id="v-80"></image></g></g><!--z-index:48--><g   id="j_11"  transform="translate(1752,785)" style=""><g  id="v-84" style="opacity: 1;"><rect  id="v-85" rx="20" ry="20" stroke="#3c7fc0" stroke-width="2" pointer-events="visiblePainted" fill="#438dd5" width="450" height="300" style="fill: rgb(67, 141, 213); stroke: rgb(60, 127, 192);"></rect><text  id="v-86" font-size="34" xml:space="preserve" y="0.8em" font-weight="bold" text-anchor="middle" pointer-events="visible" font-family="Open Sans" fill="#ffffff" transform="matrix(1,0,0,1,225,88.0999984741211)" style="fill: rgb(255, 255, 255);"><tspan  dy="0">Wallet proxy</tspan></text><text  id="v-87" font-size="17" xml:space="preserve" y="0.8em" text-anchor="middle" font-family="Open Sans" fill="#ffffff" transform="matrix(1,0,0,1,225,128.89999389648438)" style="fill: rgb(255, 255, 255);"><tspan  dy="0">[Container]</tspan></text><text  id="v-88" font-size="24" xml:space="preserve" y="0.8em" text-anchor="middle" font-family="Open Sans" fill="#ffffff" transform="matrix(1,0,0,1,225,159.3000030517578)" style="fill: rgb(255, 255, 255);"><tspan  dy="0">Proxy for PO Wallet handling</tspan><tspan dy="1.2em" x="0" >authorization</tspan></text><g  id="v-89" color="#ffffff" transform="matrix(1,0,0,1,222.5,268)" style="fill: rgb(255, 255, 255);" display="none"><g ></g><g ></g><g ></g><g ></g></g><image  id="v-90"></image></g></g><!--z-index:49--><g   id="j_12"  transform="translate(240,1385)" style=""><g  id="v-97" style="opacity: 1;"><rect  id="v-98" rx="20" ry="20" stroke="#3c7fc0" stroke-width="2" pointer-events="visiblePainted" fill="#438dd5" width="450" height="300" style="fill: rgb(67, 141, 213); stroke: rgb(60, 127, 192);"></rect><text  id="v-99" font-size="34" xml:space="preserve" y="0.8em" font-weight="bold" text-anchor="middle" pointer-events="visible" font-family="Open Sans" fill="#ffffff" transform="matrix(1,0,0,1,225,73.69999694824219)" style="fill: rgb(255, 255, 255);"><tspan  dy="0">Measurements Web Api</tspan></text><text  id="v-100" font-size="17" xml:space="preserve" y="0.8em" text-anchor="middle" font-family="Open Sans" fill="#ffffff" transform="matrix(1,0,0,1,225,114.5)" style="fill: rgb(255, 255, 255);"><tspan  dy="0">[Container]</tspan></text><text  id="v-101" font-size="24" xml:space="preserve" y="0.8em" text-anchor="middle" font-family="Open Sans" fill="#ffffff" transform="matrix(1,0,0,1,225,144.89999389648438)" style="fill: rgb(255, 255, 255);"><tspan  dy="0">API for aggregated measurements</tspan><tspan dy="1.2em" x="0" >split into production and</tspan><tspan dy="1.2em" x="0" >consumption</tspan></text><g  id="v-102" color="#ffffff" transform="matrix(1,0,0,1,210,268)" style="fill: rgb(255, 255, 255);" display="none"><g  transform="translate(5 0)"><svg xmlns="http://www.w3.org/2000/svg" width="20" height="20" fill="currentColor" viewBox="0 0 16 16"><path fill-rule="evenodd" d="M6.5 12a5.5 5.5 0 1 0 0-11 5.5 5.5 0 0 0 0 11zM13 6.5a6.5 6.5 0 1 1-13 0 6.5 6.5 0 0 1 13 0z"></path><path d="M10.344 11.742c.03.04.062.078.098.115l3.85 3.85a1 1 0 0 0 1.415-1.414l-3.85-3.85a1.007 1.007 0 0 0-.115-.1 6.538 6.538 0 0 1-1.398 1.4z"></path><path fill-rule="evenodd" d="M6.5 3a.5.5 0 0 1 .5.5V6h2.5a.5.5 0 0 1 0 1H7v2.5a.5.5 0 0 1-1 0V7H3.5a.5.5 0 0 1 0-1H6V3.5a.5.5 0 0 1 .5-.5z"></path></svg></g><g ></g><g ></g><g ></g></g><image  id="v-103"></image></g></g><!--z-index:50--><g   id="j_14" ><path  stroke="#707070" d="M 1452 1025 L 1593 1081 C 1599 1083.6666666666665 1605.3333333333333 1085.6666666666665 1612 1087 L 2372 1279 C 2378.6666666666665 1280.3333333333333 2384.6666666666665 1283 2390 1287 L 2529 1385" id="v-123" stroke-width="2" stroke-dasharray="30 30" fill="none" style="opacity: 1;"></path><path  fill="black" stroke="black" d="M 0 0 0 0" transform="matrix(0.9284766912460327,0.3713906705379486,-0.3713906705379486,0.9284766912460327,1452,1025)"></path><path  fill="#707070" stroke="#707070" d="M 20 0 L 0 10 L 20 20 z" id="v-125" transform="matrix(-0.8155714869499207,-0.5786563754081726,0.5786563754081726,-0.8155714869499207,2522.79345703125,1393.1556396484375)" style="opacity: 1;"></path><path  d="M 1452 1025 L 1593 1081 C 1599 1083.6666666666665 1605.3333333333333 1085.6666666666665 1612 1087 L 2372 1279 C 2378.6666666666665 1280.3333333333333 2384.6666666666665 1283 2390 1287 L 2529 1385" id="v-124" fill="none" style="cursor: auto; pointer-events: visiblepainted;"></path><g ><g id="v-117"  label-idx="0" cursor="move" transform="matrix(1,0,0,1,2000.8516845703125,1185.2362060546875)" style="cursor: default; opacity: 1;"><rect joint-selector="rect" id="v-120" fill="#ffffff" rx="3" ry="3" pointer-events="none" width="156.2478790283203" height="32.23599624633789" transform="matrix(1,0,0,1,-78.0999984741211,-16.100000381469727)"></rect><text joint-selector="text" id="v-119" font-size="24px" xml:space="preserve" y="0.8em" fill="#707070" text-anchor="middle" pointer-events="none" font-family="Open Sans" font-weight="normal" transform="matrix(1,0,0,1,0,-9.5)"><tspan  dy="0">Gets user info</tspan></text></g><g id="v-118"  label-idx="1" cursor="move" transform="matrix(1,0,0,1,1990.8516845703125,1211.63623046875)" style="cursor: default; opacity: 1;"><rect joint-selector="rect" id="v-122" fill="#ffffff" rx="3" ry="3"  width="0" height="0" transform="matrix(1,0,0,1,0,0)" display="none"></rect><text joint-selector="text" id="v-121" fill="#000000" font-size="14" text-anchor="middle" pointer-events="none"></text></g></g><g  display="none" style="display: none;"><g  transform="translate(1602, 1085)" id="v-263"><circle  idx="0" r="10"></circle><path  idx="0" d="M16,5.333c-7.732,0-14,4.701-14,10.5c0,1.982,0.741,3.833,2.016,5.414L2,25.667l5.613-1.441c2.339,1.317,5.237,2.107,8.387,2.107c7.732,0,14-4.701,14-10.5C30,10.034,23.732,5.333,16,5.333z" transform="translate(5, -33)"></path><path  idx="0" transform="scale(.8) translate(9.5, -37)" d="M24.778,21.419 19.276,15.917 24.777,10.415 21.949,7.585 16.447,13.087 10.945,7.585 8.117,10.415 13.618,15.917 8.116,21.419 10.946,24.248 16.447,18.746 21.948,24.248z"><title>Remove vertex.</title></path></g><g  transform="translate(2382, 1281)" id="v-264"><circle  idx="1" r="10"></circle><path  idx="1" d="M16,5.333c-7.732,0-14,4.701-14,10.5c0,1.982,0.741,3.833,2.016,5.414L2,25.667l5.613-1.441c2.339,1.317,5.237,2.107,8.387,2.107c7.732,0,14-4.701,14-10.5C30,10.034,23.732,5.333,16,5.333z" transform="translate(5, -33)"></path><path  idx="1" transform="scale(.8) translate(9.5, -37)" d="M24.778,21.419 19.276,15.917 24.777,10.415 21.949,7.585 16.447,13.087 10.945,7.585 8.117,10.415 13.618,15.917 8.116,21.419 10.946,24.248 16.447,18.746 21.948,24.248z"><title>Remove vertex.</title></path></g></g><g  id="v-127" display="none"><g  id="v-115"><path  end="source" d="M 26 0 L 0 13 L 26 26 z"></path></g><g  id="v-116"><path  end="target" d="M 26 0 L 0 13 L 26 26 z"></path></g></g><g  id="v-126" display="none"><g  id="v-112" transform="translate(1489.1753225311058, 1039.7646671045527) "><g  event="remove"><circle r="11"></circle><path transform="scale(.8) translate(-16, -16)" d="M24.778,21.419 19.276,15.917 24.777,10.415 21.949,7.585 16.447,13.087 10.945,7.585 8.117,10.415 13.618,15.917 8.116,21.419 10.946,24.248 16.447,18.746 21.948,24.248z"></path><title>Remove link.</title></g><g  event="link:options"><circle r="11" transform="translate(25)"></circle><path fill="white" transform="scale(.55) translate(29, -16)" d="M31.229,17.736c0.064-0.571,0.104-1.148,0.104-1.736s-0.04-1.166-0.104-1.737l-4.377-1.557c-0.218-0.716-0.504-1.401-0.851-2.05l1.993-4.192c-0.725-0.91-1.549-1.734-2.458-2.459l-4.193,1.994c-0.647-0.347-1.334-0.632-2.049-0.849l-1.558-4.378C17.165,0.708,16.588,0.667,16,0.667s-1.166,0.041-1.737,0.105L12.707,5.15c-0.716,0.217-1.401,0.502-2.05,0.849L6.464,4.005C5.554,4.73,4.73,5.554,4.005,6.464l1.994,4.192c-0.347,0.648-0.632,1.334-0.849,2.05l-4.378,1.557C0.708,14.834,0.667,15.412,0.667,16s0.041,1.165,0.105,1.736l4.378,1.558c0.217,0.715,0.502,1.401,0.849,2.049l-1.994,4.193c0.725,0.909,1.549,1.733,2.459,2.458l4.192-1.993c0.648,0.347,1.334,0.633,2.05,0.851l1.557,4.377c0.571,0.064,1.148,0.104,1.737,0.104c0.588,0,1.165-0.04,1.736-0.104l1.558-4.377c0.715-0.218,1.399-0.504,2.049-0.851l4.193,1.993c0.909-0.725,1.733-1.549,2.458-2.458l-1.993-4.193c0.347-0.647,0.633-1.334,0.851-2.049L31.229,17.736zM16,20.871c-2.69,0-4.872-2.182-4.872-4.871c0-2.69,2.182-4.872,4.872-4.872c2.689,0,4.871,2.182,4.871,4.872C20.871,18.689,18.689,20.871,16,20.871z"></path><title>Link options.</title></g></g></g></g><!--z-index:51--><g   id="j_15" ><path  stroke="#707070" d="M 1227 485 L 1227 785" id="v-140" stroke-width="2" stroke-dasharray="30 30" fill="none" style="opacity: 1;"></path><path  fill="black" stroke="black" d="M 0 0 0 0" transform="matrix(6.123234262925839e-17,1,-1,6.123234262925839e-17,1227,485)"></path><path  fill="#707070" stroke="#707070" d="M 20 0 L 0 10 L 20 20 z" id="v-142" transform="matrix(-1.8369701465288538e-16,-1,1,-1.8369701465288538e-16,1217,785)" style="opacity: 1;"></path><path  d="M 1227 485 L 1227 785" id="v-141" fill="none" style="cursor: auto; pointer-events: visiblepainted;"></path><g ><g id="v-134"  label-idx="0" cursor="move" transform="matrix(1,0,0,1,1227,635)" style="cursor: default; opacity: 1;"><rect joint-selector="rect" id="v-137" fill="#ffffff" rx="3" ry="3" pointer-events="none" width="126.91312408447266" height="61.03599548339844" transform="matrix(1,0,0,1,-63.5,-30.5)"></rect><text joint-selector="text" id="v-136" font-size="24px" xml:space="preserve" y="0.8em" fill="#707070" text-anchor="middle" pointer-events="none" font-family="Open Sans" font-weight="normal" transform="matrix(1,0,0,1,0,-23.899999618530273)"><tspan  dy="0">Forwards</tspan><tspan dy="1.2em" x="0" >requests to</tspan></text></g><g id="v-135"  label-idx="1" cursor="move" transform="matrix(1,0,0,1,1217,675.7999877929688)" style="cursor: default; opacity: 1;"><rect joint-selector="rect" id="v-139" fill="#ffffff" rx="3" ry="3"  width="0" height="0" transform="matrix(1,0,0,1,0,0)" display="none"></rect><text joint-selector="text" id="v-138" fill="#000000" font-size="14" text-anchor="middle" pointer-events="none"></text></g></g><g  display="none" style="display: none;"></g><g  id="v-144" display="none"><g  id="v-132"><path  end="source" d="M 26 0 L 0 13 L 26 26 z"></path></g><g  id="v-133"><path  end="target" d="M 26 0 L 0 13 L 26 26 z"></path></g></g><g  id="v-143" display="none"><g  id="v-131" transform="translate(1227, 525) "><g  event="remove"><circle r="11"></circle><path transform="scale(.8) translate(-16, -16)" d="M24.778,21.419 19.276,15.917 24.777,10.415 21.949,7.585 16.447,13.087 10.945,7.585 8.117,10.415 13.618,15.917 8.116,21.419 10.946,24.248 16.447,18.746 21.948,24.248z"></path><title>Remove link.</title></g><g  event="link:options"><circle r="11" transform="translate(25)"></circle><path fill="white" transform="scale(.55) translate(29, -16)" d="M31.229,17.736c0.064-0.571,0.104-1.148,0.104-1.736s-0.04-1.166-0.104-1.737l-4.377-1.557c-0.218-0.716-0.504-1.401-0.851-2.05l1.993-4.192c-0.725-0.91-1.549-1.734-2.458-2.459l-4.193,1.994c-0.647-0.347-1.334-0.632-2.049-0.849l-1.558-4.378C17.165,0.708,16.588,0.667,16,0.667s-1.166,0.041-1.737,0.105L12.707,5.15c-0.716,0.217-1.401,0.502-2.05,0.849L6.464,4.005C5.554,4.73,4.73,5.554,4.005,6.464l1.994,4.192c-0.347,0.648-0.632,1.334-0.849,2.05l-4.378,1.557C0.708,14.834,0.667,15.412,0.667,16s0.041,1.165,0.105,1.736l4.378,1.558c0.217,0.715,0.502,1.401,0.849,2.049l-1.994,4.193c0.725,0.909,1.549,1.733,2.459,2.458l4.192-1.993c0.648,0.347,1.334,0.633,2.05,0.851l1.557,4.377c0.571,0.064,1.148,0.104,1.737,0.104c0.588,0,1.165-0.04,1.736-0.104l1.558-4.377c0.715-0.218,1.399-0.504,2.049-0.851l4.193,1.993c0.909-0.725,1.733-1.549,2.458-2.458l-1.993-4.193c0.347-0.647,0.633-1.334,0.851-2.049L31.229,17.736zM16,20.871c-2.69,0-4.872-2.182-4.872-4.871c0-2.69,2.182-4.872,4.872-4.872c2.689,0,4.871,2.182,4.871,4.872C20.871,18.689,18.689,20.871,16,20.871z"></path><title>Link options.</title></g></g></g></g><!--z-index:52--><g   id="j_16" ><path  stroke="#707070" d="M 2515 468 L 2495 480 C 2489 483.3333333333333 2482.6666666666665 485.66666666666663 2476 487 L 1612 679 C 1605.3333333333333 680.3333333333333 1599.3333333333333 683 1594 687 L 1448 785" id="v-159" stroke-width="2" stroke-dasharray="30 30" fill="none" style="opacity: 1;"></path><path  fill="black" stroke="black" d="M 0 0 0 0" transform="matrix(-0.8610092997550964,0.5085891485214233,-0.5085891485214233,-0.8610092997550964,2515,467.8699951171875)"></path><path  fill="#707070" stroke="#707070" d="M 20 0 L 0 10 L 20 20 z" id="v-161" transform="matrix(0.8279461860656738,-0.5608075261116028,0.5608075261116028,0.8279461860656738,1442.8519287109375,776.7205200195312)" style="opacity: 1;"></path><path  d="M 2515 468 L 2495 480 C 2489 483.3333333333333 2482.6666666666665 485.66666666666663 2476 487 L 1612 679 C 1605.3333333333333 680.3333333333333 1599.3333333333333 683 1594 687 L 1448 785" id="v-160" fill="none" style="cursor: auto; pointer-events: visiblepainted;"></path><g ><g id="v-153"  label-idx="0" cursor="move" transform="matrix(1,0,0,1,1969.783203125,599.4926147460938)" style="cursor: default; opacity: 1;"><rect joint-selector="rect" id="v-156" fill="#ffffff" rx="3" ry="3" pointer-events="none" width="162.46942138671875" height="89.83599853515625" transform="matrix(1,0,0,1,-81.19999694824219,-44.900001525878906)"></rect><text joint-selector="text" id="v-155" font-size="24px" xml:space="preserve" y="0.8em" fill="#707070" text-anchor="middle" pointer-events="none" font-family="Open Sans" font-weight="normal" transform="matrix(1,0,0,1,0,-38.29999923706055)"><tspan  dy="0">Gets user info,</tspan><tspan dy="1.2em" x="0" >consents and</tspan><tspan dy="1.2em" x="0" >claims</tspan></text></g><g id="v-154"  label-idx="1" cursor="move" transform="matrix(1,0,0,1,1959.783203125,654.692626953125)" style="cursor: default; opacity: 1;"><rect joint-selector="rect" id="v-158" fill="#ffffff" rx="3" ry="3"  width="0" height="0" transform="matrix(1,0,0,1,0,0)" display="none"></rect><text joint-selector="text" id="v-157" fill="#000000" font-size="14" text-anchor="middle" pointer-events="none"></text></g></g><g  display="none" style="display: none;"><g  transform="translate(2486, 485)" id="v-265"><circle  idx="0" r="10"></circle><path  idx="0" d="M16,5.333c-7.732,0-14,4.701-14,10.5c0,1.982,0.741,3.833,2.016,5.414L2,25.667l5.613-1.441c2.339,1.317,5.237,2.107,8.387,2.107c7.732,0,14-4.701,14-10.5C30,10.034,23.732,5.333,16,5.333z" transform="translate(5, -33)"></path><path  idx="0" transform="scale(.8) translate(9.5, -37)" d="M24.778,21.419 19.276,15.917 24.777,10.415 21.949,7.585 16.447,13.087 10.945,7.585 8.117,10.415 13.618,15.917 8.116,21.419 10.946,24.248 16.447,18.746 21.948,24.248z"><title>Remove vertex.</title></path></g><g  transform="translate(1602, 681)" id="v-266"><circle  idx="1" r="10"></circle><path  idx="1" d="M16,5.333c-7.732,0-14,4.701-14,10.5c0,1.982,0.741,3.833,2.016,5.414L2,25.667l5.613-1.441c2.339,1.317,5.237,2.107,8.387,2.107c7.732,0,14-4.701,14-10.5C30,10.034,23.732,5.333,16,5.333z" transform="translate(5, -33)"></path><path  idx="1" transform="scale(.8) translate(9.5, -37)" d="M24.778,21.419 19.276,15.917 24.777,10.415 21.949,7.585 16.447,13.087 10.945,7.585 8.117,10.415 13.618,15.917 8.116,21.419 10.946,24.248 16.447,18.746 21.948,24.248z"><title>Remove vertex.</title></path></g></g><g  id="v-163" display="none"><g  id="v-151"><path  end="source" d="M 26 0 L 0 13 L 26 26 z"></path></g><g  id="v-152"><path  end="target" d="M 26 0 L 0 13 L 26 26 z"></path></g></g><g  id="v-162" display="none"><g  id="v-148" transform="translate(2479.5614624023438, 486.1843872070312) "><g  event="remove"><circle r="11"></circle><path transform="scale(.8) translate(-16, -16)" d="M24.778,21.419 19.276,15.917 24.777,10.415 21.949,7.585 16.447,13.087 10.945,7.585 8.117,10.415 13.618,15.917 8.116,21.419 10.946,24.248 16.447,18.746 21.948,24.248z"></path><title>Remove link.</title></g><g  event="link:options"><circle r="11" transform="translate(25)"></circle><path fill="white" transform="scale(.55) translate(29, -16)" d="M31.229,17.736c0.064-0.571,0.104-1.148,0.104-1.736s-0.04-1.166-0.104-1.737l-4.377-1.557c-0.218-0.716-0.504-1.401-0.851-2.05l1.993-4.192c-0.725-0.91-1.549-1.734-2.458-2.459l-4.193,1.994c-0.647-0.347-1.334-0.632-2.049-0.849l-1.558-4.378C17.165,0.708,16.588,0.667,16,0.667s-1.166,0.041-1.737,0.105L12.707,5.15c-0.716,0.217-1.401,0.502-2.05,0.849L6.464,4.005C5.554,4.73,4.73,5.554,4.005,6.464l1.994,4.192c-0.347,0.648-0.632,1.334-0.849,2.05l-4.378,1.557C0.708,14.834,0.667,15.412,0.667,16s0.041,1.165,0.105,1.736l4.378,1.558c0.217,0.715,0.502,1.401,0.849,2.049l-1.994,4.193c0.725,0.909,1.549,1.733,2.459,2.458l4.192-1.993c0.648,0.347,1.334,0.633,2.05,0.851l1.557,4.377c0.571,0.064,1.148,0.104,1.737,0.104c0.588,0,1.165-0.04,1.736-0.104l1.558-4.377c0.715-0.218,1.399-0.504,2.049-0.851l4.193,1.993c0.909-0.725,1.733-1.549,2.458-2.458l-1.993-4.193c0.347-0.647,0.633-1.334,0.851-2.049L31.229,17.736zM16,20.871c-2.69,0-4.872-2.182-4.872-4.871c0-2.69,2.182-4.872,4.872-4.872c2.689,0,4.871,2.182,4.871,4.872C20.871,18.689,18.689,20.871,16,20.871z"></path><title>Link options.</title></g></g></g></g><!--z-index:53--><g   id="j_17" ><path  stroke="#707070" d="M 1227 1085 L 1227 1385" id="v-176" stroke-width="2" stroke-dasharray="30 30" fill="none" style="opacity: 1;"></path><path  fill="black" stroke="black" d="M 0 0 0 0" transform="matrix(6.123234262925839e-17,1,-1,6.123234262925839e-17,1227,1085)"></path><path  fill="#707070" stroke="#707070" d="M 20 0 L 0 10 L 20 20 z" id="v-178" transform="matrix(-1.8369701465288538e-16,-1,1,-1.8369701465288538e-16,1217,1385)" style="opacity: 1;"></path><path  d="M 1227 1085 L 1227 1385" id="v-177" fill="none" style="cursor: auto; pointer-events: visiblepainted;"></path><g ><g id="v-170"  label-idx="0" cursor="move" transform="matrix(1,0,0,1,1227,1235)" style="cursor: default; opacity: 1;"><rect joint-selector="rect" id="v-173" fill="#ffffff" rx="3" ry="3" pointer-events="none" width="147.18955993652344" height="61.03599548339844" transform="matrix(1,0,0,1,-73.5999984741211,-30.5)"></rect><text joint-selector="text" id="v-172" font-size="24px" xml:space="preserve" y="0.8em" fill="#707070" text-anchor="middle" pointer-events="none" font-family="Open Sans" font-weight="normal" transform="matrix(1,0,0,1,0,-23.899999618530273)"><tspan  dy="0">Reads and</tspan><tspan dy="1.2em" x="0" >updates data</tspan></text></g><g id="v-171"  label-idx="1" cursor="move" transform="matrix(1,0,0,1,1217,1275.800048828125)" style="cursor: default; opacity: 1;"><rect joint-selector="rect" id="v-175" fill="#ffffff" rx="3" ry="3"  width="0" height="0" transform="matrix(1,0,0,1,0,0)" display="none"></rect><text joint-selector="text" id="v-174" fill="#000000" font-size="14" text-anchor="middle" pointer-events="none"></text></g></g><g  display="none" style="display: none;"></g><g  id="v-180" display="none"><g  id="v-168"><path  end="source" d="M 26 0 L 0 13 L 26 26 z"></path></g><g  id="v-169"><path  end="target" d="M 26 0 L 0 13 L 26 26 z"></path></g></g><g  id="v-179" display="none"><g  id="v-167" transform="translate(1227, 1125) "><g  event="remove"><circle r="11"></circle><path transform="scale(.8) translate(-16, -16)" d="M24.778,21.419 19.276,15.917 24.777,10.415 21.949,7.585 16.447,13.087 10.945,7.585 8.117,10.415 13.618,15.917 8.116,21.419 10.946,24.248 16.447,18.746 21.948,24.248z"></path><title>Remove link.</title></g><g  event="link:options"><circle r="11" transform="translate(25)"></circle><path fill="white" transform="scale(.55) translate(29, -16)" d="M31.229,17.736c0.064-0.571,0.104-1.148,0.104-1.736s-0.04-1.166-0.104-1.737l-4.377-1.557c-0.218-0.716-0.504-1.401-0.851-2.05l1.993-4.192c-0.725-0.91-1.549-1.734-2.458-2.459l-4.193,1.994c-0.647-0.347-1.334-0.632-2.049-0.849l-1.558-4.378C17.165,0.708,16.588,0.667,16,0.667s-1.166,0.041-1.737,0.105L12.707,5.15c-0.716,0.217-1.401,0.502-2.05,0.849L6.464,4.005C5.554,4.73,4.73,5.554,4.005,6.464l1.994,4.192c-0.347,0.648-0.632,1.334-0.849,2.05l-4.378,1.557C0.708,14.834,0.667,15.412,0.667,16s0.041,1.165,0.105,1.736l4.378,1.558c0.217,0.715,0.502,1.401,0.849,2.049l-1.994,4.193c0.725,0.909,1.549,1.733,2.459,2.458l4.192-1.993c0.648,0.347,1.334,0.633,2.05,0.851l1.557,4.377c0.571,0.064,1.148,0.104,1.737,0.104c0.588,0,1.165-0.04,1.736-0.104l1.558-4.377c0.715-0.218,1.399-0.504,2.049-0.851l4.193,1.993c0.909-0.725,1.733-1.549,2.458-2.458l-1.993-4.193c0.347-0.647,0.633-1.334,0.851-2.049L31.229,17.736zM16,20.871c-2.69,0-4.872-2.182-4.872-4.871c0-2.69,2.182-4.872,4.872-4.872c2.689,0,4.871,2.182,4.871,4.872C20.871,18.689,18.689,20.871,16,20.871z"></path><title>Link options.</title></g></g></g></g><!--z-index:54--><g   id="j_18" ><path  stroke="#707070" d="M 2202 1003 L 3105 1278 C 3111.6666666666665 1280 3117.6666666666665 1283 3123 1287 L 3269 1385" id="v-194" stroke-width="2" stroke-dasharray="30 30" fill="none" style="opacity: 1;"></path><path  fill="black" stroke="black" d="M 0 0 0 0" transform="matrix(0.9567554593086243,0.2908934950828552,-0.2908934950828552,0.9567554593086243,2202,1003.4099731445312)"></path><path  fill="#707070" stroke="#707070" d="M 20 0 L 0 10 L 20 20 z" id="v-196" transform="matrix(-0.827946126461029,-0.5608075261116028,0.5608075261116028,-0.827946126461029,3262.931884765625,1393.279541015625)" style="opacity: 1;"></path><path  d="M 2202 1003 L 3105 1278 C 3111.6666666666665 1280 3117.6666666666665 1283 3123 1287 L 3269 1385" id="v-195" fill="none" style="cursor: auto; pointer-events: visiblepainted;"></path><g ><g id="v-188"  label-idx="0" cursor="move" transform="matrix(1,0,0,1,2747.27978515625,1169.0596923828125)" style="cursor: default; opacity: 1;"><rect joint-selector="rect" id="v-191" fill="#ffffff" rx="3" ry="3" pointer-events="none" width="126.91312408447266" height="61.03599548339844" transform="matrix(1,0,0,1,-63.5,-30.5)"></rect><text joint-selector="text" id="v-190" font-size="24px" xml:space="preserve" y="0.8em" fill="#707070" text-anchor="middle" pointer-events="none" font-family="Open Sans" font-weight="normal" transform="matrix(1,0,0,1,0,-23.899999618530273)"><tspan  dy="0">Forwards</tspan><tspan dy="1.2em" x="0" >requests to</tspan></text></g><g id="v-189"  label-idx="1" cursor="move" transform="matrix(1,0,0,1,2737.27978515625,1209.8597412109375)" style="cursor: default; opacity: 1;"><rect joint-selector="rect" id="v-193" fill="#ffffff" rx="3" ry="3"  width="0" height="0" transform="matrix(1,0,0,1,0,0)" display="none"></rect><text joint-selector="text" id="v-192" fill="#000000" font-size="14" text-anchor="middle" pointer-events="none"></text></g></g><g  display="none" style="display: none;"><g  transform="translate(3115, 1281)" id="v-267"><circle  idx="0" r="10"></circle><path  idx="0" d="M16,5.333c-7.732,0-14,4.701-14,10.5c0,1.982,0.741,3.833,2.016,5.414L2,25.667l5.613-1.441c2.339,1.317,5.237,2.107,8.387,2.107c7.732,0,14-4.701,14-10.5C30,10.034,23.732,5.333,16,5.333z" transform="translate(5, -33)"></path><path  idx="0" transform="scale(.8) translate(9.5, -37)" d="M24.778,21.419 19.276,15.917 24.777,10.415 21.949,7.585 16.447,13.087 10.945,7.585 8.117,10.415 13.618,15.917 8.116,21.419 10.946,24.248 16.447,18.746 21.948,24.248z"><title>Remove vertex.</title></path></g></g><g  id="v-198" display="none"><g  id="v-186"><path  end="source" d="M 26 0 L 0 13 L 26 26 z"></path></g><g  id="v-187"><path  end="target" d="M 26 0 L 0 13 L 26 26 z"></path></g></g><g  id="v-197" display="none"><g  id="v-184" transform="translate(2240.2649018397187, 1014.6532093088845) "><g  event="remove"><circle r="11"></circle><path transform="scale(.8) translate(-16, -16)" d="M24.778,21.419 19.276,15.917 24.777,10.415 21.949,7.585 16.447,13.087 10.945,7.585 8.117,10.415 13.618,15.917 8.116,21.419 10.946,24.248 16.447,18.746 21.948,24.248z"></path><title>Remove link.</title></g><g  event="link:options"><circle r="11" transform="translate(25)"></circle><path fill="white" transform="scale(.55) translate(29, -16)" d="M31.229,17.736c0.064-0.571,0.104-1.148,0.104-1.736s-0.04-1.166-0.104-1.737l-4.377-1.557c-0.218-0.716-0.504-1.401-0.851-2.05l1.993-4.192c-0.725-0.91-1.549-1.734-2.458-2.459l-4.193,1.994c-0.647-0.347-1.334-0.632-2.049-0.849l-1.558-4.378C17.165,0.708,16.588,0.667,16,0.667s-1.166,0.041-1.737,0.105L12.707,5.15c-0.716,0.217-1.401,0.502-2.05,0.849L6.464,4.005C5.554,4.73,4.73,5.554,4.005,6.464l1.994,4.192c-0.347,0.648-0.632,1.334-0.849,2.05l-4.378,1.557C0.708,14.834,0.667,15.412,0.667,16s0.041,1.165,0.105,1.736l4.378,1.558c0.217,0.715,0.502,1.401,0.849,2.049l-1.994,4.193c0.725,0.909,1.549,1.733,2.459,2.458l4.192-1.993c0.648,0.347,1.334,0.633,2.05,0.851l1.557,4.377c0.571,0.064,1.148,0.104,1.737,0.104c0.588,0,1.165-0.04,1.736-0.104l1.558-4.377c0.715-0.218,1.399-0.504,2.049-0.851l4.193,1.993c0.909-0.725,1.733-1.549,2.458-2.458l-1.993-4.193c0.347-0.647,0.633-1.334,0.851-2.049L31.229,17.736zM16,20.871c-2.69,0-4.872-2.182-4.872-4.871c0-2.69,2.182-4.872,4.872-4.872c2.689,0,4.871,2.182,4.871,4.872C20.871,18.689,18.689,20.871,16,20.871z"></path><title>Link options.</title></g></g></g></g><!--z-index:55--><g   id="j_19" ><path  stroke="#707070" d="M 1415 485 L 1790 785" id="v-211" stroke-width="2" stroke-dasharray="30 30" fill="none" style="opacity: 1;"></path><path  fill="black" stroke="black" d="M 0 0 0 0" transform="matrix(0.7808688282966614,0.6246950626373291,-0.6246950626373291,0.7808688282966614,1414.5,485)"></path><path  fill="#707070" stroke="#707070" d="M 20 0 L 0 10 L 20 20 z" id="v-213" transform="matrix(-0.7808688282966614,-0.6246950030326843,0.6246950030326843,-0.7808688282966614,1783.2530517578125,792.8087158203125)" style="opacity: 1;"></path><path  d="M 1415 485 L 1790 785" id="v-212" fill="none" style="cursor: auto; pointer-events: visiblepainted;"></path><g ><g id="v-205"  label-idx="0" cursor="move" transform="matrix(1,0,0,1,1602.5,635)" style="cursor: default; opacity: 1;"><rect joint-selector="rect" id="v-208" fill="#ffffff" rx="3" ry="3" pointer-events="none" width="126.91312408447266" height="61.03599548339844" transform="matrix(1,0,0,1,-63.5,-30.5)"></rect><text joint-selector="text" id="v-207" font-size="24px" xml:space="preserve" y="0.8em" fill="#707070" text-anchor="middle" pointer-events="none" font-family="Open Sans" font-weight="normal" transform="matrix(1,0,0,1,0,-23.899999618530273)"><tspan  dy="0">Forwards</tspan><tspan dy="1.2em" x="0" >requests to</tspan></text></g><g id="v-206"  label-idx="1" cursor="move" transform="matrix(1,0,0,1,1592.5,675.7999877929688)" style="cursor: default; opacity: 1;"><rect joint-selector="rect" id="v-210" fill="#ffffff" rx="3" ry="3"  width="0" height="0" transform="matrix(1,0,0,1,0,0)" display="none"></rect><text joint-selector="text" id="v-209" fill="#000000" font-size="14" text-anchor="middle" pointer-events="none"></text></g></g><g  display="none" style="display: none;"></g><g  id="v-215" display="none"><g  id="v-203"><path  end="source" d="M 26 0 L 0 13 L 26 26 z"></path></g><g  id="v-204"><path  end="target" d="M 26 0 L 0 13 L 26 26 z"></path></g></g><g  id="v-214" display="none"><g  id="v-202" transform="translate(1446.2347523777212, 509.987801902177) "><g  event="remove"><circle r="11"></circle><path transform="scale(.8) translate(-16, -16)" d="M24.778,21.419 19.276,15.917 24.777,10.415 21.949,7.585 16.447,13.087 10.945,7.585 8.117,10.415 13.618,15.917 8.116,21.419 10.946,24.248 16.447,18.746 21.948,24.248z"></path><title>Remove link.</title></g><g  event="link:options"><circle r="11" transform="translate(25)"></circle><path fill="white" transform="scale(.55) translate(29, -16)" d="M31.229,17.736c0.064-0.571,0.104-1.148,0.104-1.736s-0.04-1.166-0.104-1.737l-4.377-1.557c-0.218-0.716-0.504-1.401-0.851-2.05l1.993-4.192c-0.725-0.91-1.549-1.734-2.458-2.459l-4.193,1.994c-0.647-0.347-1.334-0.632-2.049-0.849l-1.558-4.378C17.165,0.708,16.588,0.667,16,0.667s-1.166,0.041-1.737,0.105L12.707,5.15c-0.716,0.217-1.401,0.502-2.05,0.849L6.464,4.005C5.554,4.73,4.73,5.554,4.005,6.464l1.994,4.192c-0.347,0.648-0.632,1.334-0.849,2.05l-4.378,1.557C0.708,14.834,0.667,15.412,0.667,16s0.041,1.165,0.105,1.736l4.378,1.558c0.217,0.715,0.502,1.401,0.849,2.049l-1.994,4.193c0.725,0.909,1.549,1.733,2.459,2.458l4.192-1.993c0.648,0.347,1.334,0.633,2.05,0.851l1.557,4.377c0.571,0.064,1.148,0.104,1.737,0.104c0.588,0,1.165-0.04,1.736-0.104l1.558-4.377c0.715-0.218,1.399-0.504,2.049-0.851l4.193,1.993c0.909-0.725,1.733-1.549,2.458-2.458l-1.993-4.193c0.347-0.647,0.633-1.334,0.851-2.049L31.229,17.736zM16,20.871c-2.69,0-4.872-2.182-4.872-4.871c0-2.69,2.182-4.872,4.872-4.872c2.689,0,4.871,2.182,4.871,4.872C20.871,18.689,18.689,20.871,16,20.871z"></path><title>Link options.</title></g></g></g></g><!--z-index:56--><g   id="j_20" ><path  stroke="#707070" d="M 1052 485 L 831 674 C 825.6666666666666 678.6666666666666 821.6666666666666 684 819 690 L 528 1385" id="v-229" stroke-width="2" stroke-dasharray="30 30" fill="none" style="opacity: 1;"></path><path  fill="black" stroke="black" d="M 0 0 0 0" transform="matrix(-0.7595282196998596,0.6504743695259094,-0.6504743695259094,-0.7595282196998596,1051.8599853515625,485)"></path><path  fill="#707070" stroke="#707070" d="M 20 0 L 0 10 L 20 20 z" id="v-231" transform="matrix(0.3866087794303894,-0.9222438335418701,0.9222438335418701,0.3866087794303894,518.6575927734375,1381.1339111328125)" style="opacity: 1;"></path><path  d="M 1052 485 L 831 674 C 825.6666666666666 678.6666666666666 821.6666666666666 684 819 690 L 528 1385" id="v-230" fill="none" style="cursor: auto; pointer-events: visiblepainted;"></path><g ><g id="v-223"  label-idx="0" cursor="move" transform="matrix(1,0,0,1,733.5477294921875,894.0870971679688)" style="cursor: default; opacity: 1;"><rect joint-selector="rect" id="v-226" fill="#ffffff" rx="3" ry="3" pointer-events="none" width="126.91312408447266" height="61.03599548339844" transform="matrix(1,0,0,1,-63.5,-30.5)"></rect><text joint-selector="text" id="v-225" font-size="24px" xml:space="preserve" y="0.8em" fill="#707070" text-anchor="middle" pointer-events="none" font-family="Open Sans" font-weight="normal" transform="matrix(1,0,0,1,0,-23.899999618530273)"><tspan  dy="0">Forwards</tspan><tspan dy="1.2em" x="0" >requests to</tspan></text></g><g id="v-224"  label-idx="1" cursor="move" transform="matrix(1,0,0,1,723.5477294921875,934.8870849609375)" style="cursor: default; opacity: 1;"><rect joint-selector="rect" id="v-228" fill="#ffffff" rx="3" ry="3"  width="0" height="0" transform="matrix(1,0,0,1,0,0)" display="none"></rect><text joint-selector="text" id="v-227" fill="#000000" font-size="14" text-anchor="middle" pointer-events="none"></text></g></g><g  display="none" style="display: none;"><g  transform="translate(823, 681)" id="v-268"><circle  idx="0" r="10"></circle><path  idx="0" d="M16,5.333c-7.732,0-14,4.701-14,10.5c0,1.982,0.741,3.833,2.016,5.414L2,25.667l5.613-1.441c2.339,1.317,5.237,2.107,8.387,2.107c7.732,0,14-4.701,14-10.5C30,10.034,23.732,5.333,16,5.333z" transform="translate(5, -33)"></path><path  idx="0" transform="scale(.8) translate(9.5, -37)" d="M24.778,21.419 19.276,15.917 24.777,10.415 21.949,7.585 16.447,13.087 10.945,7.585 8.117,10.415 13.618,15.917 8.116,21.419 10.946,24.248 16.447,18.746 21.948,24.248z"><title>Remove vertex.</title></path></g></g><g  id="v-233" display="none"><g  id="v-221"><path  end="source" d="M 26 0 L 0 13 L 26 26 z"></path></g><g  id="v-222"><path  end="target" d="M 26 0 L 0 13 L 26 26 z"></path></g></g><g  id="v-232" display="none"><g  id="v-219" transform="translate(1021.6006258941444, 510.99765477831096) "><g  event="remove"><circle r="11"></circle><path transform="scale(.8) translate(-16, -16)" d="M24.778,21.419 19.276,15.917 24.777,10.415 21.949,7.585 16.447,13.087 10.945,7.585 8.117,10.415 13.618,15.917 8.116,21.419 10.946,24.248 16.447,18.746 21.948,24.248z"></path><title>Remove link.</title></g><g  event="link:options"><circle r="11" transform="translate(25)"></circle><path fill="white" transform="scale(.55) translate(29, -16)" d="M31.229,17.736c0.064-0.571,0.104-1.148,0.104-1.736s-0.04-1.166-0.104-1.737l-4.377-1.557c-0.218-0.716-0.504-1.401-0.851-2.05l1.993-4.192c-0.725-0.91-1.549-1.734-2.458-2.459l-4.193,1.994c-0.647-0.347-1.334-0.632-2.049-0.849l-1.558-4.378C17.165,0.708,16.588,0.667,16,0.667s-1.166,0.041-1.737,0.105L12.707,5.15c-0.716,0.217-1.401,0.502-2.05,0.849L6.464,4.005C5.554,4.73,4.73,5.554,4.005,6.464l1.994,4.192c-0.347,0.648-0.632,1.334-0.849,2.05l-4.378,1.557C0.708,14.834,0.667,15.412,0.667,16s0.041,1.165,0.105,1.736l4.378,1.558c0.217,0.715,0.502,1.401,0.849,2.049l-1.994,4.193c0.725,0.909,1.549,1.733,2.459,2.458l4.192-1.993c0.648,0.347,1.334,0.633,2.05,0.851l1.557,4.377c0.571,0.064,1.148,0.104,1.737,0.104c0.588,0,1.165-0.04,1.736-0.104l1.558-4.377c0.715-0.218,1.399-0.504,2.049-0.851l4.193,1.993c0.909-0.725,1.733-1.549,2.458-2.458l-1.993-4.193c0.347-0.647,0.633-1.334,0.851-2.049L31.229,17.736zM16,20.871c-2.69,0-4.872-2.182-4.872-4.871c0-2.69,2.182-4.872,4.872-4.872c2.689,0,4.871,2.182,4.871,4.872C20.871,18.689,18.689,20.871,16,20.871z"></path><title>Link options.</title></g></g></g></g><!--z-index:57--><g   id="j_21" ><path  stroke="#707070" d="M 1037 1085 L 656 1385" id="v-246" stroke-width="2" stroke-dasharray="30 30" fill="none" style="opacity: 1;"></path><path  fill="black" stroke="black" d="M 0 0 0 0" transform="matrix(-0.7856739163398743,0.6186408400535583,-0.6186408400535583,-0.7856739163398743,1036.5,1085)"></path><path  fill="#707070" stroke="#707070" d="M 20 0 L 0 10 L 20 20 z" id="v-248" transform="matrix(0.7856739163398743,-0.6186408400535583,0.6186408400535583,0.7856739163398743,649.3135986328125,1377.143310546875)" style="opacity: 1;"></path><path  d="M 1037 1085 L 656 1385" id="v-247" fill="none" style="cursor: auto; pointer-events: visiblepainted;"></path><g ><g id="v-240"  label-idx="0" cursor="move" transform="matrix(1,0,0,1,846.5,1235)" style="cursor: default; opacity: 1;"><rect joint-selector="rect" id="v-243" fill="#ffffff" rx="3" ry="3" pointer-events="none" width="175.4282989501953" height="89.83599853515625" transform="matrix(1,0,0,1,-87.69999694824219,-44.900001525878906)"></rect><text joint-selector="text" id="v-242" font-size="24px" xml:space="preserve" y="0.8em" fill="#707070" text-anchor="middle" pointer-events="none" font-family="Open Sans" font-weight="normal" transform="matrix(1,0,0,1,0,-38.29999923706055)"><tspan  dy="0">Publishes</tspan><tspan dy="1.2em" x="0" >accepted terms</tspan><tspan dy="1.2em" x="0" >via RabbitMq to</tspan></text></g><g id="v-241"  label-idx="1" cursor="move" transform="matrix(1,0,0,1,836.5,1290.199951171875)" style="cursor: default; opacity: 1;"><rect joint-selector="rect" id="v-245" fill="#ffffff" rx="3" ry="3"  width="0" height="0" transform="matrix(1,0,0,1,0,0)" display="none"></rect><text joint-selector="text" id="v-244" fill="#000000" font-size="14" text-anchor="middle" pointer-events="none"></text></g></g><g  display="none" style="display: none;"></g><g  id="v-250" display="none"><g  id="v-238"><path  end="source" d="M 26 0 L 0 13 L 26 26 z"></path></g><g  id="v-239"><path  end="target" d="M 26 0 L 0 13 L 26 26 z"></path></g></g><g  id="v-249" display="none"><g  id="v-237" transform="translate(1005.5730439748867, 1109.7456346654435) "><g  event="remove"><circle r="11"></circle><path transform="scale(.8) translate(-16, -16)" d="M24.778,21.419 19.276,15.917 24.777,10.415 21.949,7.585 16.447,13.087 10.945,7.585 8.117,10.415 13.618,15.917 8.116,21.419 10.946,24.248 16.447,18.746 21.948,24.248z"></path><title>Remove link.</title></g><g  event="link:options"><circle r="11" transform="translate(25)"></circle><path fill="white" transform="scale(.55) translate(29, -16)" d="M31.229,17.736c0.064-0.571,0.104-1.148,0.104-1.736s-0.04-1.166-0.104-1.737l-4.377-1.557c-0.218-0.716-0.504-1.401-0.851-2.05l1.993-4.192c-0.725-0.91-1.549-1.734-2.458-2.459l-4.193,1.994c-0.647-0.347-1.334-0.632-2.049-0.849l-1.558-4.378C17.165,0.708,16.588,0.667,16,0.667s-1.166,0.041-1.737,0.105L12.707,5.15c-0.716,0.217-1.401,0.502-2.05,0.849L6.464,4.005C5.554,4.73,4.73,5.554,4.005,6.464l1.994,4.192c-0.347,0.648-0.632,1.334-0.849,2.05l-4.378,1.557C0.708,14.834,0.667,15.412,0.667,16s0.041,1.165,0.105,1.736l4.378,1.558c0.217,0.715,0.502,1.401,0.849,2.049l-1.994,4.193c0.725,0.909,1.549,1.733,2.459,2.458l4.192-1.993c0.648,0.347,1.334,0.633,2.05,0.851l1.557,4.377c0.571,0.064,1.148,0.104,1.737,0.104c0.588,0,1.165-0.04,1.736-0.104l1.558-4.377c0.715-0.218,1.399-0.504,2.049-0.851l4.193,1.993c0.909-0.725,1.733-1.549,2.458-2.458l-1.993-4.193c0.347-0.647,0.633-1.334,0.851-2.049L31.229,17.736zM16,20.871c-2.69,0-4.872-2.182-4.872-4.871c0-2.69,2.182-4.872,4.872-4.872c2.689,0,4.871,2.182,4.871,4.872C20.871,18.689,18.689,20.871,16,20.871z"></path><title>Link options.</title></g></g></g></g><!--z-index:58--></g><g ></g><g ></g><g ></g></g></svg>